<svg width="25" height="25" viewBox="0 0 25 25" fill="none" xmlns="http://www.w3.org/2000/svg">
<path fill-rule="evenodd" clip-rule="evenodd" d="M1.25 3C1.25 2.58579 1.58579 2.25 2 2.25H3.74001C4.92958 2.25 5.91944 3.0501 6.23293 4.12H18.73C20.833 4.12 22.4396 5.83723 22.288 7.93408L21.7481 15.4339L21.7478 15.4375C21.608 17.2545 20.0257 18.74 18.19 18.74H7.53999C5.46335 18.74 3.82544 16.9669 4.00267 14.8968C4.00269 14.8965 4.00264 14.8971 4.00267 14.8968L4.83259 4.93772C4.88589 4.30412 4.37993 3.75 3.74001 3.75H2C1.58579 3.75 1.25 3.41421 1.25 3ZM6.28094 5.62L5.49741 15.0223L5.49725 15.0242C5.39508 16.2137 6.33696 17.24 7.53999 17.24H18.19C19.2338 17.24 20.171 16.3664 20.2521 15.3242C20.2521 15.3236 20.2522 15.323 20.2522 15.3225L20.7919 7.82615C20.8804 6.603 19.967 5.62 18.73 5.62H6.28094Z" fill="#332532"/>
<path fill-rule="evenodd" clip-rule="evenodd" d="M16.25 21.25C15.9739 21.25 15.75 21.4739 15.75 21.75C15.75 22.0261 15.9739 22.25 16.25 22.25C16.5261 22.25 16.75 22.0261 16.75 21.75C16.75 21.4739 16.5261 21.25 16.25 21.25ZM14.25 21.75C14.25 20.6454 15.1454 19.75 16.25 19.75C17.3546 19.75 18.25 20.6454 18.25 21.75C18.25 22.8546 17.3546 23.75 16.25 23.75C15.1454 23.75 14.25 22.8546 14.25 21.75Z" fill="#332532"/>
<path fill-rule="evenodd" clip-rule="evenodd" d="M8.25 21.25C7.97386 21.25 7.75 21.4739 7.75 21.75C7.75 22.0261 7.97386 22.25 8.25 22.25C8.52614 22.25 8.75 22.0261 8.75 21.75C8.75 21.4739 8.52614 21.25 8.25 21.25ZM6.25 21.75C6.25 20.6454 7.14543 19.75 8.25 19.75C9.35457 19.75 10.25 20.6454 10.25 21.75C10.25 22.8546 9.35457 23.75 8.25 23.75C7.14543 23.75 6.25 22.8546 6.25 21.75Z" fill="#332532"/>
</svg>
