<svg viewBox="0 0 108 34" fill="none" xmlns="http://www.w3.org/2000/svg">
<path fill-rule="evenodd" clip-rule="evenodd" d="M27.5001 1.5C26.864 1.5 26.2199 1.53966 25.5699 1.61566C25.2957 1.64774 25.0473 1.4514 25.0153 1.17712C24.9832 0.902849 25.1795 0.654505 25.4538 0.622432C26.1395 0.542244 26.8225 0.5 27.5001 0.5C28.1793 0.5 28.8591 0.544223 29.5377 0.628052C29.8117 0.661909 30.0065 0.911525 29.9726 1.18558C29.9387 1.45964 29.6891 1.65436 29.4151 1.62051C28.7747 1.5414 28.1359 1.5 27.5001 1.5ZM22.0997 1.8104C22.1807 2.07439 22.0324 2.35407 21.7684 2.43509C20.5455 2.8104 19.3215 3.28643 18.1122 3.8405C17.8612 3.95552 17.5644 3.84525 17.4494 3.59421C17.3344 3.34316 17.4446 3.0464 17.6957 2.93138C18.9396 2.36145 20.2047 1.86893 21.475 1.4791C21.739 1.39808 22.0187 1.54641 22.0997 1.8104ZM32.8564 1.85615C32.9433 1.59402 33.2262 1.45192 33.4883 1.53877C34.7461 1.95553 35.9898 2.48185 37.2084 3.08825C37.4556 3.21128 37.5563 3.51142 37.4333 3.75865C37.3103 4.00587 37.0101 4.10655 36.7629 3.98352C35.5802 3.39496 34.3803 2.88779 33.1738 2.48803C32.9116 2.40118 32.7696 2.11828 32.8564 1.85615ZM14.8048 4.98082C14.9447 5.21892 14.8651 5.52533 14.627 5.66519C13.4875 6.33451 12.3789 7.05589 11.316 7.80709C11.0905 7.96648 10.7785 7.91288 10.6191 7.68737C10.4598 7.46187 10.5134 7.14986 10.7389 6.99047C11.8227 6.2244 12.9549 5.4876 14.1205 4.80294C14.3586 4.66308 14.665 4.74272 14.8048 4.98082ZM40.0092 5.22286C40.157 4.98964 40.466 4.92045 40.6992 5.06832C41.8305 5.78559 42.9302 6.5534 43.9884 7.34556C44.2095 7.51105 44.2546 7.82441 44.0891 8.04547C43.9236 8.26654 43.6102 8.31159 43.3892 8.14611C42.3486 7.36718 41.2702 6.61443 40.1637 5.91287C39.9305 5.76501 39.8613 5.45608 40.0092 5.22286ZM8.24883 9.50412C8.42504 9.71673 8.39553 10.0319 8.18292 10.2081C7.11904 11.0899 6.13329 11.9788 5.2465 12.8434C5.04877 13.0361 4.73221 13.0321 4.53945 12.8344C4.34668 12.6367 4.3507 12.3201 4.54842 12.1273C5.45483 11.2437 6.46062 10.3368 7.5448 9.43821C7.75741 9.262 8.07262 9.2915 8.24883 9.50412ZM46.4046 9.89572C46.583 9.68494 46.8985 9.6587 47.1093 9.8371C48.168 10.7332 49.1656 11.6275 50.089 12.4856C50.2912 12.6736 50.3028 12.99 50.1148 13.1923C49.9268 13.3945 49.6105 13.4061 49.4082 13.2181C48.4941 12.3685 47.5081 11.4848 46.4633 10.6004C46.2525 10.422 46.2262 10.1065 46.4046 9.89572ZM2.50839 15.0185C2.72189 15.1936 2.75299 15.5087 2.57785 15.7222C2.11991 16.2804 1.7307 16.8025 1.41688 17.2761C1.26437 17.5064 0.954114 17.5693 0.723908 17.4168C0.493702 17.2643 0.430718 16.9541 0.583229 16.7239C0.919537 16.2162 1.32997 15.6667 1.80471 15.0879C1.97984 14.8744 2.29489 14.8433 2.50839 15.0185ZM52.2479 15.2486C52.4424 15.0526 52.759 15.0514 52.955 15.246C53.4657 15.753 53.9339 16.2241 54.3541 16.647L54.3547 16.6476L54.3562 16.649C54.7991 17.0947 55.2644 17.5629 55.7513 18.0484C55.9468 18.2433 55.9473 18.5599 55.7524 18.7555C55.5574 18.951 55.2408 18.9515 55.0452 18.7565C54.5559 18.2687 54.0885 17.7984 53.6454 17.3524C53.2248 16.9292 52.7587 16.4602 52.2505 15.9557C52.0545 15.7612 52.0533 15.4446 52.2479 15.2486ZM107.353 16.6453C107.548 16.84 107.549 17.1566 107.355 17.3524L107.355 17.3526C106.923 17.7867 106.456 18.2572 105.956 18.7546C105.76 18.9493 105.443 18.9485 105.249 18.7527C105.054 18.5569 105.055 18.2404 105.25 18.0456C105.748 17.551 106.213 17.083 106.644 16.649L106.645 16.6476C106.84 16.4517 107.157 16.4507 107.353 16.6453ZM103.117 20.8176C103.305 21.0193 103.295 21.3357 103.093 21.5243C102.165 22.3925 101.171 23.2896 100.122 24.1841C99.9115 24.3632 99.5959 24.3381 99.4168 24.128C99.2376 23.9178 99.2628 23.6022 99.4729 23.4231C100.508 22.5404 101.491 21.6538 102.41 20.794C102.611 20.6054 102.928 20.616 103.117 20.8176ZM57.8797 20.827C58.0691 20.6261 58.3855 20.6168 58.5864 20.8062C59.5135 21.6802 60.4916 22.5708 61.5142 23.4511C61.7235 23.6312 61.7471 23.9469 61.5669 24.1562C61.3868 24.3655 61.0711 24.3891 60.8618 24.209C59.8255 23.3169 58.8361 22.4159 57.9005 21.5338C57.6995 21.3444 57.6902 21.0279 57.8797 20.827ZM97.1065 25.9861C97.2725 26.2067 97.2283 26.5202 97.0076 26.6862C95.9485 27.4833 94.8496 28.2532 93.7191 28.9705C93.4859 29.1185 93.177 29.0494 93.029 28.8162C92.8811 28.5831 92.9502 28.2741 93.1833 28.1262C94.2883 27.425 95.3653 26.6706 96.4063 25.8872C96.627 25.7212 96.9405 25.7654 97.1065 25.9861ZM63.8716 26.0267C64.0384 25.8066 64.3521 25.7635 64.5721 25.9303C65.6141 26.7204 66.689 27.4771 67.7913 28.1777C68.0244 28.3259 68.0932 28.6349 67.9451 28.8679C67.7969 29.101 67.4879 29.1698 67.2549 29.0217C66.1262 28.3042 65.0285 27.5314 63.9679 26.7272C63.7479 26.5603 63.7048 26.2467 63.8716 26.0267ZM90.45 30.2788C90.5724 30.5263 90.4709 30.8262 90.2234 30.9486C89.0039 31.5516 87.7578 32.0732 86.4942 32.4848C86.2317 32.5704 85.9495 32.4268 85.8639 32.1643C85.7784 31.9017 85.9219 31.6195 86.1845 31.534C87.3961 31.1393 88.5975 30.637 89.7802 30.0522C90.0277 29.9298 90.3276 30.0312 90.45 30.2788ZM70.5281 30.3286C70.6497 30.0807 70.9492 29.9783 71.1972 30.0999C72.3798 30.6799 73.5833 31.1756 74.8015 31.5634C75.0647 31.6472 75.2101 31.9284 75.1263 32.1915C75.0426 32.4546 74.7614 32.6 74.4982 32.5163C73.2269 32.1117 71.9776 31.5964 70.7568 30.9977C70.5089 30.8761 70.4065 30.5766 70.5281 30.3286ZM82.9743 32.8205C83.0071 33.0947 82.8114 33.3436 82.5372 33.3764C81.8602 33.4574 81.1806 33.5 80.5001 33.5C79.8177 33.5 79.1385 33.4595 78.4635 33.3822C78.1891 33.3508 77.9922 33.1029 78.0236 32.8285C78.055 32.5542 78.3029 32.3573 78.5772 32.3887C79.2162 32.4618 79.8574 32.5 80.5001 32.5C81.1389 32.5 81.7787 32.46 82.4185 32.3835C82.6926 32.3507 82.9415 32.5463 82.9743 32.8205Z" fill="#332532"/>
</svg>
