<svg viewBox="0 0 35 35" xmlns="http://www.w3.org/2000/svg">
<path d="M 17.582031 8.0449219 C 16.816954 8.0469119 16.053934 8.233321 15.404297 8.6054688 L 10.744141 11.197266 C 9.3803049 11.955039 8.4335937 13.547269 8.4335938 15.119141 L 8.4335938 20.0625 C 8.4335938 21.62834 9.3661666 23.229189 10.748047 23.986328 L 15.408203 26.580078 C 16.706023 27.30535 18.460893 27.301616 19.767578 26.582031 A 0.750075 0.750075 0 0 0 19.771484 26.580078 L 24.4375 23.984375 C 25.801458 23.226664 26.748047 21.634309 26.748047 20.0625 L 26.748047 15.103516 C 26.748047 13.539116 25.817304 11.93969 24.4375 11.181641 L 24.433594 11.179688 L 19.771484 8.5859375 A 0.750075 0.750075 0 0 0 19.767578 8.5839844 C 19.114224 8.2242325 18.347752 8.0429271 17.582031 8.0449219 z M 17.587891 9.609375 C 18.138319 9.607715 18.691964 9.704063 19.044922 9.8984375 L 23.708984 12.492188 A 0.750075 0.750075 0 0 0 23.712891 12.496094 C 23.971009 12.637542 24.223394 12.907351 24.457031 13.212891 L 17.583984 17.197266 L 10.732422 13.230469 C 10.967154 12.922705 11.217854 12.649386 11.472656 12.507812 L 16.138672 9.9121094 A 0.750075 0.750075 0 0 0 16.148438 9.90625 C 16.490147 9.7102762 17.037462 9.6110303 17.587891 9.609375 z M 25.154297 14.542969 C 25.210315 14.740864 25.248047 14.93312 25.248047 15.103516 L 25.248047 20.0625 C 25.248047 20.911491 24.445026 22.264939 23.708984 22.673828 L 19.044922 25.267578 C 18.856006 25.37162 18.607158 25.444111 18.333984 25.492188 L 18.333984 18.496094 L 25.154297 14.542969 z M 10.029297 14.556641 L 16.833984 18.496094 L 16.833984 25.490234 C 16.566252 25.442252 16.322461 25.371136 16.140625 25.269531 A 0.750075 0.750075 0 0 0 16.138672 25.269531 L 11.472656 22.673828 A 0.750075 0.750075 0 0 0 11.46875 22.671875 C 10.721438 22.262414 9.9335937 20.91746 9.9335938 20.0625 L 9.9335938 15.119141 C 9.9335938 14.94907 9.9718417 14.755553 10.029297 14.556641 z " />
  <path d="m 32.15625,21.197266 a 0.750075,0.750075 0 0 0 -0.740234,0.761718 c 0,4.70438 -3.463802,8.410691 -7.951172,9.154297 L 24.132812,30 a 0.75030613,0.75030613 0 1 0 -1.287109,-0.771484 l -1.53125,2.552734 a 0.750075,0.750075 0 0 0 0.644531,1.134766 c 6.048098,0 10.957032,-4.908934 10.957032,-10.957032 A 0.750075,0.750075 0 0 0 32.15625,21.197266 Z" />
  <path d="M 13.208984,2.25 C 7.1608698,2.25 2.25,7.1608698 2.25,13.208984 a 0.750075,0.750075 0 1 0 1.5,0 c 0,-4.7040061 3.4643468,-8.4121837 7.951172,-9.1562496 L 11.033203,5.1660156 A 0.75030623,0.75030623 0 1 0 12.320312,5.9375 l 1.53125,-2.5507812 A 0.750075,0.750075 0 0 0 13.208984,2.25 Z" />
</svg>
