<svg viewBox="0 0 20 20" xmlns="http://www.w3.org/2000/svg">
<path d="M12.3785 4.5881C12.1832 4.39283 11.8666 4.39283 11.6713 4.5881C11.4761 4.78336 11.4761 5.09994 11.6713 5.2952L15.8761 9.5L2.9165 9.5C2.64036 9.5 2.4165 9.72386 2.4165 10C2.4165 10.2761 2.64036 10.5 2.9165 10.5L15.8761 10.5L11.6713 14.7048C11.4761 14.9 11.4761 15.2166 11.6713 15.4119C11.8666 15.6071 12.1832 15.6071 12.3785 15.4119L17.4368 10.3535C17.5306 10.2598 17.5832 10.1326 17.5832 9.99998C17.5832 9.86738 17.5306 9.7402 17.4368 9.64643L12.3785 4.5881Z" />
</svg>
