<svg viewBox="0 0 20 20" xmlns="http://www.w3.org/2000/svg">
<path d="M15.4119 13.3786C15.6072 13.1833 15.6072 12.8667 15.4119 12.6715C15.2166 12.4762 14.9001 12.4762 14.7048 12.6715L10.5 16.8763L10.5 3.91663C10.5 3.64048 10.2761 3.41663 10 3.41663C9.72386 3.41663 9.5 3.64048 9.5 3.91663L9.5 16.8762L5.29524 12.6715C5.09997 12.4762 4.78339 12.4762 4.58813 12.6715C4.39287 12.8667 4.39287 13.1833 4.58813 13.3786L9.64646 18.4369C9.74023 18.5307 9.86741 18.5834 10 18.5834C10.1326 18.5834 10.2598 18.5307 10.3536 18.4369L15.4119 13.3786Z" />
</svg>
