<svg viewBox="0 0 37 36" xmlns="http://www.w3.org/2000/svg">
<path d="M 12.248047 2 C 11.695747 2 11.248047 2.44772 11.248047 3 L 11.248047 4.2890625 C 8.913651 4.4617643 7.0790895 5.2519621 5.796875 6.6328125 C 4.349095 8.1919625 3.7480469 10.3467 3.7480469 12.75 L 3.7480469 25.5 C 3.7480469 27.9033 4.349095 30.059941 5.796875 31.619141 C 7.257105 33.191641 9.4324069 34 12.248047 34 L 24.248047 34 C 27.063647 34 29.239019 33.191641 30.699219 31.619141 C 32.147019 30.059941 32.748047 27.9033 32.748047 25.5 L 32.748047 12.75 C 32.748047 10.3467 32.147019 8.1919625 30.699219 6.6328125 C 29.41667 5.251574 27.581398 4.4595112 25.246094 4.2871094 L 25.246094 3 C 25.246094 2.44772 24.798394 2 24.246094 2 C 23.693794 2 23.246094 2.44772 23.246094 3 L 23.246094 4.25 L 13.248047 4.25 L 13.248047 3 C 13.248047 2.44772 12.800347 2 12.248047 2 z M 13.248047 6.25 L 23.246094 6.25 L 23.246094 7.5 C 23.246094 8.05229 23.693794 8.5 24.246094 8.5 C 24.798394 8.5 25.246094 8.05229 25.246094 7.5 L 25.246094 6.296875 C 27.120151 6.461885 28.398549 7.093968 29.234375 7.9941406 C 30.205359 9.0398446 30.724703 10.596361 30.744141 12.634766 L 5.7519531 12.634766 C 5.7713893 10.596366 6.2907164 9.039843 7.2617188 7.9941406 C 8.0973562 7.0942359 9.3748814 6.4621159 11.248047 6.296875 L 11.248047 7.5 C 11.248047 8.05229 11.695747 8.5 12.248047 8.5 C 12.800347 8.5 13.248047 8.05229 13.248047 7.5 L 13.248047 6.25 z M 5.7480469 14.634766 L 30.748047 14.634766 L 30.748047 25.5 C 30.748047 27.5967 30.224075 29.191913 29.234375 30.257812 C 28.257175 31.310212 26.682447 32 24.248047 32 L 12.248047 32 C 9.8136069 32 8.2389888 31.310212 7.2617188 30.257812 C 6.2719988 29.191912 5.7480469 27.5967 5.7480469 25.5 L 5.7480469 14.634766 z M 12.6875 19.550781 C 12.1352 19.550781 11.6875 19.998581 11.6875 20.550781 C 11.6875 21.103081 12.1352 21.550781 12.6875 21.550781 L 12.701172 21.550781 C 13.253472 21.550781 13.701172 21.103081 13.701172 20.550781 C 13.701172 19.998581 13.253472 19.550781 12.701172 19.550781 L 12.6875 19.550781 z M 18.240234 19.550781 C 17.687934 19.550781 17.240234 19.998581 17.240234 20.550781 C 17.240234 21.103081 17.687934 21.550781 18.240234 21.550781 L 18.253906 21.550781 C 18.806206 21.550781 19.253906 21.103081 19.253906 20.550781 C 19.253906 19.998581 18.806206 19.550781 18.253906 19.550781 L 18.240234 19.550781 z M 23.789062 19.550781 C 23.236763 19.550781 22.789062 19.998581 22.789062 20.550781 C 22.789062 21.103081 23.236763 21.550781 23.789062 21.550781 L 23.800781 21.550781 C 24.352981 21.550781 24.800781 21.103081 24.800781 20.550781 C 24.800781 19.998581 24.352981 19.550781 23.800781 19.550781 L 23.789062 19.550781 z M 12.6875 24.050781 C 12.1352 24.050781 11.6875 24.498581 11.6875 25.050781 C 11.6875 25.603081 12.1352 26.050781 12.6875 26.050781 L 12.701172 26.050781 C 13.253472 26.050781 13.701172 25.603081 13.701172 25.050781 C 13.701172 24.498581 13.253472 24.050781 12.701172 24.050781 L 12.6875 24.050781 z M 18.240234 24.050781 C 17.687934 24.050781 17.240234 24.498581 17.240234 25.050781 C 17.240234 25.603081 17.687934 26.050781 18.240234 26.050781 L 18.253906 26.050781 C 18.806206 26.050781 19.253906 25.603081 19.253906 25.050781 C 19.253906 24.498581 18.806206 24.050781 18.253906 24.050781 L 18.240234 24.050781 z M 23.789062 24.050781 C 23.236763 24.050781 22.789062 24.498581 22.789062 25.050781 C 22.789062 25.603081 23.236763 26.050781 23.789062 26.050781 L 23.800781 26.050781 C 24.352981 26.050781 24.800781 25.603081 24.800781 25.050781 C 24.800781 24.498581 24.352981 24.050781 23.800781 24.050781 L 23.789062 24.050781 z " />
</svg>
