<svg width="50" height="50" viewBox="0 0 50 50" fill="none" xmlns="http://www.w3.org/2000/svg">
<path d="M4.16699 26.2709H39.5837" stroke="#332532" stroke-width="1.5" stroke-miterlimit="10" stroke-linecap="round" stroke-linejoin="round"/>
<path d="M39.5837 21.4167V36.3125C39.5212 42.25 37.8961 43.75 31.7086 43.75H12.0421C5.75039 43.75 4.16699 42.1875 4.16699 35.9792V21.4167C4.16699 15.7917 5.47949 13.9792 10.417 13.6875C10.917 13.6667 11.4587 13.6459 12.0421 13.6459H31.7086C38.0003 13.6459 39.5837 15.2084 39.5837 21.4167Z" stroke="#332532" stroke-width="1.5" stroke-linecap="round" stroke-linejoin="round"/>
<path d="M45.8337 14.0208V28.5833C45.8337 34.2083 44.5212 36.0208 39.5837 36.3125V21.4167C39.5837 15.2083 38.0003 13.6458 31.7086 13.6458H12.0421C11.4587 13.6458 10.917 13.6667 10.417 13.6875C10.4795 7.75 12.1046 6.25 18.2921 6.25H37.9586C44.2503 6.25 45.8337 7.8125 45.8337 14.0208Z" stroke="#332532" stroke-width="1.5" stroke-linecap="round" stroke-linejoin="round"/>
<path d="M10.9375 37.1041H14.5208" stroke="#332532" stroke-width="1.5" stroke-miterlimit="10" stroke-linecap="round" stroke-linejoin="round"/>
<path d="M18.9795 37.1041H26.1462" stroke="#332532" stroke-width="1.5" stroke-miterlimit="10" stroke-linecap="round" stroke-linejoin="round"/>
</svg>
