<svg width="50" height="50" viewBox="0 0 50 50" fill="none" xmlns="http://www.w3.org/2000/svg">
<path d="M6.60449 15.5L25.0003 26.1458L43.2711 15.5624" stroke="#332532" stroke-width="1.5" stroke-linecap="round" stroke-linejoin="round"/>
<path d="M25 45.0209V26.125" stroke="#332532" stroke-width="1.5" stroke-linecap="round" stroke-linejoin="round"/>
<path d="M20.6878 5.16675L9.56279 11.3543C7.04195 12.7501 4.97949 16.2501 4.97949 19.1251V30.896C4.97949 33.771 7.04195 37.2709 9.56279 38.6668L20.6878 44.8543C23.0628 46.1668 26.9586 46.1668 29.3336 44.8543L40.4587 38.6668C42.9795 37.2709 45.0419 33.771 45.0419 30.896V19.1251C45.0419 16.2501 42.9795 12.7501 40.4587 11.3543L29.3336 5.16675C26.9378 3.83341 23.0628 3.83341 20.6878 5.16675Z" stroke="#332532" stroke-width="1.5" stroke-linecap="round" stroke-linejoin="round"/>
<path d="M35.4163 27.5832V19.9583L15.6455 8.5415" stroke="#332532" stroke-width="1.5" stroke-linecap="round" stroke-linejoin="round"/>
</svg>
