<svg viewBox="0 0 35 35" xmlns="http://www.w3.org/2000/svg">
<path d="M 8.75 2.1660156 C 6.2858371 2.1660156 4.1265308 3.5304135 3.0058594 5.5410156 A 0.75018624 0.75018624 0 0 0 4.3164062 6.2714844 C 5.1790749 4.7237665 6.8391629 3.6660156 8.75 3.6660156 L 21.125 3.6660156 L 21.125 17.5 C 21.125 18.694992 20.154102 19.666016 18.958984 19.666016 L 17.5 19.666016 A 0.750075 0.750075 0 1 0 17.5 21.166016 L 18.958984 21.166016 C 20.972267 21.166016 22.625 19.513208 22.625 17.5 L 22.625 8.0410156 L 24.558594 8.0410156 C 25.337756 8.0410156 26.053541 8.4625412 26.447266 9.140625 L 28.296875 12.375 L 27.708984 12.375 C 26.497833 12.375 25.5 13.372833 25.5 14.583984 L 25.5 18.958984 C 25.5 20.170136 26.497833 21.166016 27.708984 21.166016 L 31.333984 21.166016 L 31.333984 24.791016 C 31.333984 26.808326 29.726295 28.416016 27.708984 28.416016 L 26.921875 28.416016 C 26.573075 26.756491 25.093122 25.5 23.333984 25.5 C 21.574848 25.5 20.09332 26.756491 19.744141 28.416016 L 15.255859 28.416016 C 14.90668 26.756506 13.425152 25.5 11.666016 25.5 C 9.9068127 25.5 8.4269117 26.756506 8.078125 28.416016 L 7.2910156 28.416016 C 5.2737752 28.416016 3.6660156 26.808314 3.6660156 24.791016 C 3.6803596 23.776774 2.1516717 23.776774 2.1660156 24.791016 C 2.1660156 27.615518 4.466576 29.916016 7.2910156 29.916016 L 8.078125 29.916016 C 8.4269117 31.575868 9.9068127 32.833984 11.666016 32.833984 C 13.425152 32.833984 14.90668 31.575868 15.255859 29.916016 L 19.744141 29.916016 C 20.09332 31.575883 21.574848 32.833984 23.333984 32.833984 C 25.093122 32.833984 26.573075 31.575883 26.921875 29.916016 L 27.708984 29.916016 C 30.533474 29.916016 32.833984 27.615505 32.833984 24.791016 L 32.833984 20.416016 L 32.833984 17.5 C 32.833564 17.369752 32.799235 17.241857 32.734375 17.128906 L 30.242188 12.759766 L 30.240234 12.753906 C 30.240029 12.753545 30.240442 12.752314 30.240234 12.751953 L 27.746094 8.3925781 C 27.745431 8.3912681 27.744841 8.3899719 27.744141 8.3886719 C 27.087912 7.2584195 25.879432 6.5410156 24.558594 6.5410156 L 22.625 6.5410156 L 22.625 2.9160156 A 0.750075 0.750075 0 0 0 21.875 2.1660156 L 8.75 2.1660156 z M 27.708984 13.875 L 29.154297 13.875 L 31.333984 17.699219 L 31.333984 19.666016 L 27.708984 19.666016 C 27.315936 19.666016 27 19.352033 27 18.958984 L 27 14.583984 C 27 14.190936 27.315936 13.875 27.708984 13.875 z M 11.666016 27 C 12.871489 27 13.833984 27.960417 13.833984 29.166016 C 13.833984 30.371489 12.871489 31.333984 11.666016 31.333984 C 10.460417 31.333984 9.5 30.371489 9.5 29.166016 C 9.5 27.960417 10.460417 27 11.666016 27 z M 23.333984 27 C 24.539458 27 25.5 27.960448 25.5 29.166016 C 25.5 30.371458 24.539458 31.333984 23.333984 31.333984 C 22.128511 31.333984 21.166016 30.371458 21.166016 29.166016 C 21.166016 27.960448 22.128511 27 23.333984 27 z " />
  <path d="m 2.9160156,10.916016 a 0.750075,0.750075 0 1 0 0,1.5 h 8.7500004 a 0.750075,0.750075 0 1 0 0,-1.5 z" />
  <path d="m 2.9160156,15.291016 a 0.750075,0.750075 0 1 0 0,1.5 H 8.75 a 0.750075,0.750075 0 1 0 0,-1.5 z" />
  <path d="m 2.9160156,19.666016 a 0.750075,0.750075 0 1 0 0,1.5 h 2.9179688 a 0.750075,0.750075 0 1 0 0,-1.5 z" />
</svg>
