<svg viewBox="0 0 40 40" xmlns="http://www.w3.org/2000/svg">
<path d="m 20,1.8398438 c -0.685958,0 -1.371863,0.2202224 -1.9375,0.6601562 -1.644908,1.2559265 -4.848805,3.8873963 -7.691406,7.453125 -2.8455332,3.569406 -5.3805811,8.113072 -5.355469,13.212891 0,0.0013 -3e-7,0.0026 0,0.0039 6.9e-6,0.0013 -7.2e-6,0.0026 0,0.0039 0.00432,8.243696 6.738342,14.992188 15,14.992188 8.261418,0 14.998919,-6.734182 15,-14.980469 0.0093,-5.043312 -2.536628,-9.579516 -5.386719,-13.166016 C 26.780576,6.4352468 23.574869,3.7650885 21.9375,2.5 21.371863,2.0600662 20.685958,1.8398437 20,1.8398438 Z m -0.0957,3.0273437 c 0.06873,-0.053452 0.122681,-0.053452 0.191406,0 l 0.002,0.00195 0.002,0.00195 c 1.513561,1.1692086 4.563104,3.7210118 7.179688,7.0136722 2.616584,3.29266 4.743722,7.288233 4.736328,11.294922 v 0.002 0.002 c 0,6.619408 -5.362081,11.982422 -12,11.982422 -6.635691,0 -12,-5.3805 -12,-12 v -0.0039 -0.0039 C 7.9934094,19.077946 10.109637,15.092659 12.716797,11.822266 15.323957,8.5518724 18.368579,6.0380783 19.892578,4.875 l 0.0059,-0.00391 z" />
</svg>
