<svg width="45" height="45" viewBox="0 0 45 45" fill="none" xmlns="http://www.w3.org/2000/svg">
<path d="M16.875 41.25H28.125C37.5 41.25 41.25 37.5 41.25 28.125V16.875C41.25 7.5 37.5 3.75 28.125 3.75H16.875C7.5 3.75 3.75 7.5 3.75 16.875V28.125C3.75 37.5 7.5 41.25 16.875 41.25Z" stroke="#D6B89C" stroke-width="3" stroke-linecap="round" stroke-linejoin="round"/>
<path d="M13.125 15.4688C15 17.3438 18.0563 17.3438 19.95 15.4688" stroke="#D6B89C" stroke-width="3" stroke-miterlimit="10" stroke-linecap="round" stroke-linejoin="round"/>
<path d="M25.0508 15.4688C26.9258 17.3438 29.982 17.3438 31.8758 15.4688" stroke="#D6B89C" stroke-width="3" stroke-miterlimit="10" stroke-linecap="round" stroke-linejoin="round"/>
<path d="M15.75 24.375H29.25C30.1875 24.375 30.9375 25.125 30.9375 26.0625C30.9375 30.7312 27.1688 34.5 22.5 34.5C17.8312 34.5 14.0625 30.7312 14.0625 26.0625C14.0625 25.125 14.8125 24.375 15.75 24.375Z" stroke="#D6B89C" stroke-width="3" stroke-miterlimit="10" stroke-linecap="round" stroke-linejoin="round"/>
</svg>
