<svg viewBox="0 0 17 17" xmlns="http://www.w3.org/2000/svg">
<path d="M11.4678 1.41675H5.53192C2.95359 1.41675 1.4165 2.95383 1.4165 5.53216V11.4609C1.4165 14.0463 2.95359 15.5834 5.53192 15.5834H11.4607C14.039 15.5834 15.5761 14.0463 15.5761 11.468V5.53216C15.5832 2.95383 14.0461 1.41675 11.4678 1.41675ZM8.49984 11.2484C6.984 11.2484 5.7515 10.0159 5.7515 8.50008C5.7515 6.98425 6.984 5.75175 8.49984 5.75175C10.0157 5.75175 11.2482 6.98425 11.2482 8.50008C11.2482 10.0159 10.0157 11.2484 8.49984 11.2484ZM12.6932 4.87341C12.6578 4.95841 12.6082 5.03633 12.5444 5.10716C12.4736 5.17091 12.3957 5.2205 12.3107 5.25591C12.2257 5.29133 12.1336 5.31258 12.0415 5.31258C11.8503 5.31258 11.6732 5.24175 11.5386 5.10716C11.4748 5.03633 11.4253 4.95841 11.3898 4.87341C11.3544 4.78841 11.3332 4.69633 11.3332 4.60425C11.3332 4.51216 11.3544 4.42008 11.3898 4.33508C11.4253 4.243 11.4748 4.17216 11.5386 4.10133C11.7015 3.93841 11.9494 3.8605 12.1761 3.91008C12.2257 3.91716 12.2682 3.93133 12.3107 3.95258C12.3532 3.96675 12.3957 3.988 12.4382 4.01633C12.4736 4.03758 12.509 4.073 12.5444 4.10133C12.6082 4.17216 12.6578 4.243 12.6932 4.33508C12.7286 4.42008 12.7498 4.51216 12.7498 4.60425C12.7498 4.69633 12.7286 4.78841 12.6932 4.87341Z" />
</svg>
