<svg viewBox="0 0 35 35" xmlns="http://www.w3.org/2000/svg">
<path d="m 17.507812,2.1601562 c -0.831604,4.76e-5 -1.661556,0.280159 -2.318359,0.8417969 a 0.750075,0.750075 0 0 0 -0.002,0.00195 l -2.304688,1.984375 a 0.750075,0.750075 0 0 0 -0.002,0.00195 C 12.647667,5.1923358 11.834637,5.4921875 11.535156,5.4921875 H 9.0117188 c -1.9561833,0 -3.5644532,1.6082481 -3.5644532,3.5644531 v 2.4941404 c 0,0.299227 -0.2931411,1.095164 -0.4960937,1.339844 -2.603e-4,3.14e-4 2.599e-4,0.0016 0,0.002 l -1.9648438,2.314453 a 0.750075,0.750075 0 0 0 -0.00195,0.002 c -1.103024,1.312289 -1.103024,3.29904 0,4.611328 a 0.750075,0.750075 0 0 0 0.00195,0.002 l 1.9648438,2.316406 c 0.2029526,0.24468 0.4960937,1.040617 0.4960937,1.339844 v 2.49414 c 0,1.956183 1.6082861,3.564453 3.5644532,3.564453 h 2.5234372 c 0.320828,0 1.106283,0.294438 1.345703,0.501953 a 0.750075,0.750075 0 0 0 0.002,0.002 l 2.304688,1.984375 a 0.750075,0.750075 0 0 0 0.0059,0.0039 c 1.324933,1.116744 3.332877,1.119357 4.646485,-0.0039 a 0.750075,0.750075 0 0 0 0.002,0 l 2.302734,-1.984375 a 0.750075,0.750075 0 0 0 0.002,-0.002 c 0.233223,-0.202143 1.04802,-0.501953 1.347657,-0.501953 h 2.478515 c 1.956138,0 3.564453,-1.60825 3.564453,-3.564453 v -2.478515 c 0,-0.320828 0.294438,-1.108237 0.501953,-1.347657 a 0.750075,0.750075 0 0 0 0.002,-0.002 l 1.984375,-2.302734 a 0.750075,0.750075 0 0 0 0.0039,-0.0059 c 1.1167,-1.325011 1.119312,-3.3328 -0.0039,-4.646485 a 0.750075,0.750075 0 0 0 0,-0.002 l -1.984375,-2.304688 a 0.750075,0.750075 0 0 0 -0.002,-0.002 C 29.836919,12.647637 29.537109,11.834793 29.537109,11.535156 V 9.0566406 c 0,-1.9562244 -1.608299,-3.5644531 -3.564453,-3.5644531 h -2.478515 c -0.32082,0 -1.108224,-0.2944432 -1.347657,-0.5019531 a 0.750075,0.750075 0 0 0 -0.002,-0.00195 L 19.841797,3.0039062 A 0.750075,0.750075 0 0 0 19.835938,3 C 19.173472,2.441622 18.339417,2.1601087 17.507812,2.1601562 Z m 0.002,1.5332032 c 0.499095,4.75e-5 1.001041,0.151093 1.359375,0.453125 L 21.166016,6.125 c 0.635352,0.549803 1.483198,0.8671875 2.328125,0.8671875 h 2.478515 c 1.135446,0 2.064453,0.9290175 2.064453,2.0644531 v 2.4785154 c 0,0.837963 0.312885,1.686348 0.869141,2.328125 l 1.980469,2.302735 c 0.59603,0.698775 0.598625,1.984575 -0.0039,2.701172 -3.9e-4,4.63e-4 3.91e-4,0.0015 0,0.002 l -1.978515,2.296875 c -0.549857,0.635365 -0.867188,1.483207 -0.867188,2.328125 v 2.478515 c 0,1.135398 -0.92899,2.064453 -2.064453,2.064453 h -2.478515 c -0.837117,0 -1.686578,0.311986 -2.328125,0.867188 l -2.302735,1.982422 c -0.698653,0.595983 -1.984698,0.598579 -2.701172,-0.0039 h -0.002 l -2.296875,-1.976562 -0.002,-0.002 C 13.225963,28.354441 12.380073,28.037109 11.535156,28.037109 H 9.0117188 c -1.135513,0 -2.0644532,-0.929036 -2.0644532,-2.064453 v -2.49414 c 0,-0.83799 -0.3175503,-1.671307 -0.84375,-2.302735 a 0.750075,0.750075 0 0 0 -0.00391,-0.0059 L 4.1328125,18.855469 v -0.002 l -0.00195,-0.002 c -0.585039,-0.699933 -0.5850365,-1.973892 0,-2.673828 l 0.00195,-0.002 c 3.865e-4,-4.61e-4 -3.87e-4,-0.0015 0,-0.002 l 1.9667969,-2.316406 a 0.750075,0.750075 0 0 0 0.00391,-0.0039 c 0.5261997,-0.631428 0.84375,-1.464745 0.84375,-2.302735 V 9.0566406 c 0,-1.135455 0.9289564,-2.0644531 2.0644532,-2.0644531 h 2.5234372 c 0.837072,0 1.684595,-0.3120041 2.326172,-0.8671875 l 0.002,-0.00195 2.300781,-1.9804688 C 16.513459,3.843806 17.01067,3.6933119 17.509766,3.6933594 Z" />
  <path d="M 18.25 10.134766 C 18.023083 10.13972 17.803757 10.183828 17.601562 10.253906 C 17.192471 10.3957 16.827891 10.634968 16.572266 11.011719 L 16.572266 11.013672 L 14.785156 13.666016 C 14.715159 13.559558 14.636727 13.458071 14.539062 13.369141 C 14.109137 12.977661 13.556549 12.884766 12.994141 12.884766 L 12.308594 12.884766 C 11.740227 12.884766 11.183693 12.976526 10.753906 13.371094 C 10.324119 13.765659 10.1875 14.346292 10.1875 14.933594 L 10.1875 21.611328 C 10.1875 22.19863 10.324119 22.779263 10.753906 23.173828 C 11.183693 23.568394 11.740227 23.660156 12.308594 23.660156 L 12.994141 23.660156 C 13.5663 23.660156 14.122314 23.561076 14.548828 23.166016 C 14.650231 23.072091 14.731762 22.965711 14.802734 22.853516 L 16.078125 23.839844 L 16.007812 23.775391 C 16.591895 24.359473 17.266848 24.404297 17.835938 24.404297 L 20.416016 24.404297 C 21.607646 24.404297 22.747535 23.634553 23.054688 22.40625 L 23.039062 22.458984 L 24.667969 17.488281 C 24.906577 16.813914 24.81559 16.081476 24.425781 15.548828 C 24.035973 15.01618 23.376105 14.708984 22.662109 14.708984 L 19.998047 14.708984 L 20.326172 12.568359 L 20.318359 12.611328 C 20.539329 11.580469 19.931695 10.586904 18.945312 10.25 C 18.711424 10.164002 18.476917 10.129811 18.25 10.134766 z M 18.287109 11.636719 C 18.346047 11.635149 18.39644 11.641717 18.429688 11.654297 L 18.443359 11.658203 L 18.458984 11.664062 C 18.688489 11.740543 18.892031 12.108099 18.851562 12.296875 L 18.847656 12.318359 L 18.505859 14.539062 L 18.505859 14.550781 C 18.401244 15.41426 19.116519 16.208984 19.935547 16.208984 L 22.662109 16.208984 C 22.969013 16.208984 23.127077 16.31562 23.214844 16.435547 C 23.302614 16.555474 23.350731 16.712689 23.253906 16.986328 L 23.25 16.996094 L 21.605469 22.017578 L 21.599609 22.042969 C 21.49836 22.447865 20.857585 22.904297 20.416016 22.904297 L 17.835938 22.904297 C 17.588425 22.904297 17.038477 22.684961 17.068359 22.714844 L 17.033203 22.681641 L 15.115234 21.201172 L 15.115234 15.859375 L 17.816406 11.851562 C 17.839266 11.819023 17.955137 11.719242 18.091797 11.671875 C 18.160689 11.647995 18.228171 11.638289 18.287109 11.636719 z M 12.308594 14.384766 L 12.994141 14.384766 C 13.379632 14.384766 13.510797 14.461666 13.529297 14.478516 C 13.547797 14.495366 13.615234 14.562186 13.615234 14.933594 L 13.615234 21.611328 C 13.615234 21.977593 13.54951 22.049492 13.53125 22.066406 C 13.51299 22.083316 13.384482 22.160156 12.994141 22.160156 L 12.308594 22.160156 C 11.914461 22.160156 11.784519 22.084072 11.769531 22.070312 C 11.754541 22.056552 11.6875 21.986522 11.6875 21.611328 L 11.6875 14.933594 C 11.6875 14.558396 11.754541 14.490322 11.769531 14.476562 C 11.784521 14.462803 11.914461 14.384766 12.308594 14.384766 z " />
</svg>
