<svg viewBox="0 0 37 36" xmlns="http://www.w3.org/2000/svg">
<path d="M 13.751953 2 C 9.9033031 2 6.9472587 2.7636787 4.9804688 4.7304688 C 3.0136787 6.6972587 2.2519531 9.65141 2.2519531 13.5 L 2.2519531 22.5 C 2.2519531 25.5544 2.7335625 28.037269 3.9140625 29.917969 C 5.1202425 31.839569 6.9729806 33.006613 9.4316406 33.570312 C 9.4321472 33.57043 9.4330873 33.570197 9.4335938 33.570312 C 9.4342337 33.570458 9.4349068 33.570168 9.4355469 33.570312 C 10.709153 33.860329 12.134673 34 13.75 34 L 22.75 34 C 26.5996 34 29.552191 33.234997 31.525391 31.279297 C 31.526293 31.278402 31.526444 31.276291 31.527344 31.275391 C 31.528248 31.274497 31.53035 31.274338 31.53125 31.273438 C 33.48705 29.300238 34.251953 26.3496 34.251953 22.5 L 34.251953 13.5 C 34.251953 11.884773 34.110332 10.459203 33.820312 9.1855469 C 33.820174 9.1849374 33.820451 9.1842032 33.820312 9.1835938 C 33.820197 9.1830872 33.82043 9.1821473 33.820312 9.1816406 C 33.256713 6.7229706 32.091522 4.8682894 30.169922 3.6621094 C 28.289222 2.4815994 25.806253 2 22.751953 2 L 13.751953 2 z M 13.751953 4 L 22.751953 4 C 25.637553 4 27.682469 4.4622187 29.105469 5.3554688 C 30.365669 6.1464988 31.235528 7.3369994 31.736328 9.0996094 L 9.3515625 31.484375 C 7.5889525 30.983475 6.3984519 30.115669 5.6074219 28.855469 C 4.7141819 27.432369 4.2519531 25.3857 4.2519531 22.5 L 4.2519531 13.5 C 4.2519531 9.84867 4.9882844 7.5527413 6.3964844 6.1445312 C 7.8046944 4.7363212 10.100553 4 13.751953 4 z M 32.164062 11.501953 C 32.222062 12.119453 32.251953 12.7835 32.251953 13.5 L 32.251953 22.5 C 32.251953 25.5461 31.737553 27.651191 30.751953 29.087891 L 22.666016 21 L 32.164062 11.501953 z M 21.25 22.414062 L 29.337891 30.501953 C 27.901291 31.487553 25.7961 32 22.75 32 L 13.75 32 C 13.034099 32 12.370894 31.969998 11.753906 31.912109 L 21.25 22.414062 z " />
  <path d="m 13.9309,9.67371 c -1.5397,0 -2.9621,0.86849 -3.3459,2.52229 l -1e-4,5e-4 c -0.4704,2.0224 0.7949,3.861 2.1728,5.1666 0.6676,0.6287 1.6966,0.6215 2.3419,0.0042 l 0.0035,-0.0033 v 0 c 1.373,-1.3007 2.6316,-3.1423 2.1731,-5.1704 -0.3847,-1.6523 -1.8065,-2.51989 -3.3453,-2.51989 z m 0,-2 c 2.2703,0 4.6579,1.329 5.2941,4.07019 l 0.0011,0.0049 v 0 c 0.7097,3.1297 -1.2695,5.6664 -2.7458,7.0655 -1.4244,1.3607 -3.6636,1.3533 -5.0954,0.0032 L 11.3831,18.8159 C 9.91142,17.4217 7.90746,14.8808 8.63673,11.7439 M 13.9309,7.67371 c -2.2703,0 -4.65773,1.32886 -5.29406,4.06969" />
  <path d="M12.8931 13.05C12.8931 12.4977 13.3408 12.05 13.8931 12.05H13.9065C14.4588 12.05 14.9065 12.4977 14.9065 13.05C14.9065 13.6023 14.4588 14.05 13.9065 14.05H13.8931C13.3408 14.05 12.8931 13.6023 12.8931 13.05Z" />
</svg>
