<svg width="50" height="50" viewBox="0 0 50 50" fill="none" xmlns="http://www.w3.org/2000/svg">
<path d="M35.417 42.7083H14.5837C8.33366 42.7083 4.16699 39.5833 4.16699 32.2916V17.7083C4.16699 10.4166 8.33366 7.29163 14.5837 7.29163H35.417C41.667 7.29163 45.8337 10.4166 45.8337 17.7083V32.2916C45.8337 39.5833 41.667 42.7083 35.417 42.7083Z" stroke="#332532" stroke-width="1.5" stroke-miterlimit="10" stroke-linecap="round" stroke-linejoin="round"/>
<path d="M25 31.25C28.4518 31.25 31.25 28.4518 31.25 25C31.25 21.5482 28.4518 18.75 25 18.75C21.5482 18.75 18.75 21.5482 18.75 25C18.75 28.4518 21.5482 31.25 25 31.25Z" stroke="#332532" stroke-width="1.5" stroke-miterlimit="10" stroke-linecap="round" stroke-linejoin="round"/>
<path d="M4.16699 18.75H6.25033C12.5003 18.75 14.5837 16.6667 14.5837 10.4167V8.33337" stroke="#332532" stroke-width="1.5" stroke-miterlimit="10" stroke-linecap="round" stroke-linejoin="round"/>
<path d="M45.8337 18.75H43.7503C37.5003 18.75 35.417 16.6667 35.417 10.4167V8.33337" stroke="#332532" stroke-width="1.5" stroke-miterlimit="10" stroke-linecap="round" stroke-linejoin="round"/>
<path d="M4.16699 31.25H6.25033C12.5003 31.25 14.5837 33.3333 14.5837 39.5833V41.6667" stroke="#332532" stroke-width="1.5" stroke-miterlimit="10" stroke-linecap="round" stroke-linejoin="round"/>
<path d="M45.8337 31.25H43.7503C37.5003 31.25 35.417 33.3333 35.417 39.5833V41.6667" stroke="#332532" stroke-width="1.5" stroke-miterlimit="10" stroke-linecap="round" stroke-linejoin="round"/>
</svg>
