<svg width="45" height="45" viewBox="0 0 45 45" fill="none" xmlns="http://www.w3.org/2000/svg">
<path d="M40.6128 19.575L38.7753 27.4125C37.2003 34.1812 34.0878 36.9187 28.2378 36.3562C27.3003 36.2812 26.2878 36.1125 25.2003 35.85L22.0503 35.1C14.2316 33.2437 11.8128 29.3812 13.6503 21.5437L15.4878 13.6875C15.8628 12.0937 16.3128 10.7062 16.8753 9.56245C19.0691 5.02495 22.8003 3.8062 29.0628 5.28745L32.1941 6.0187C40.0503 7.8562 42.4503 11.7375 40.6128 19.575Z" stroke="#D6B89C" stroke-width="3" stroke-linecap="round" stroke-linejoin="round"/>
<path d="M28.2384 36.3562C27.0759 37.1437 25.6134 37.8 23.8321 38.3812L20.8696 39.3562C13.4259 41.7562 9.50713 39.75 7.08838 32.3062L4.68838 24.9C2.28838 17.4563 4.27588 13.5187 11.7196 11.1187L14.6821 10.1437C15.4509 9.9 16.1821 9.69375 16.8759 9.5625C16.3134 10.7063 15.8634 12.0938 15.4884 13.6875L13.6509 21.5437C11.8134 29.3812 14.2321 33.2437 22.0509 35.1L25.2009 35.85C26.2884 36.1125 27.3009 36.2812 28.2384 36.3562Z" stroke="#D6B89C" stroke-width="3" stroke-linecap="round" stroke-linejoin="round"/>
<path d="M23.6992 15.9938L32.793 18.3" stroke="#D6B89C" stroke-width="3" stroke-linecap="round" stroke-linejoin="round"/>
<path d="M21.8633 23.25L27.3008 24.6375" stroke="#D6B89C" stroke-width="3" stroke-linecap="round" stroke-linejoin="round"/>
</svg>
