<svg viewBox="0 0 37 36" xmlns="http://www.w3.org/2000/svg">
<path d="M23.623 12.3879C24.0136 12.7784 24.0136 13.4116 23.623 13.8021L13.8131 23.6121C13.4225 24.0026 12.7894 24.0026 12.3989 23.6121C12.0083 23.2215 12.0083 22.5884 12.3989 22.1978L22.2088 12.3879C22.5993 11.9973 23.2325 11.9973 23.623 12.3879Z" />
<path d="M13.7176 12.8652C13.2509 12.8652 12.8726 13.2436 12.8726 13.7102C12.8726 14.1769 13.2509 14.5552 13.7176 14.5552C14.1843 14.5552 14.5625 14.1769 14.5625 13.7102C14.5625 13.2435 14.1842 12.8652 13.7176 12.8652ZM10.8726 13.7102C10.8726 12.139 12.1463 10.8652 13.7176 10.8652C15.2889 10.8652 16.5625 12.139 16.5625 13.7102C16.5625 15.2815 15.2888 16.5552 13.7176 16.5552C12.1464 16.5552 10.8726 15.2815 10.8726 13.7102Z" />
<path d="M23.5291 21.4451C23.0624 21.4451 22.6841 21.8234 22.6841 22.29C22.6841 22.7568 23.0624 23.1351 23.5291 23.1351C23.9957 23.1351 24.3741 22.7567 24.3741 22.29C24.3741 21.8234 23.9958 21.4451 23.5291 21.4451ZM20.6841 22.29C20.6841 20.7188 21.9578 19.4451 23.5291 19.4451C25.1003 19.4451 26.3741 20.7188 26.3741 22.29C26.3741 23.8613 25.1003 25.1351 23.5291 25.1351C21.9578 25.1351 20.6841 23.8613 20.6841 22.29Z" />
<path d="M18.2485 4C10.5165 4 4.24854 10.268 4.24854 18C4.24854 25.732 10.5165 32 18.2485 32C25.9805 32 32.2485 25.732 32.2485 18C32.2485 10.268 25.9805 4 18.2485 4ZM2.24854 18C2.24854 9.16344 9.41198 2 18.2485 2C27.0851 2 34.2485 9.16344 34.2485 18C34.2485 26.8365 27.0851 34 18.2485 34C9.41198 34 2.24854 26.8365 2.24854 18Z" />
</svg>
