<svg width="50" height="50" viewBox="0 0 50 50" fill="none" xmlns="http://www.w3.org/2000/svg">
<path d="M45.7702 38.1876C45.7702 38.9376 45.6035 39.7084 45.2493 40.4584C44.8952 41.2084 44.4368 41.9168 43.8327 42.5834C42.8118 43.7084 41.6868 44.5209 40.416 45.0418C39.166 45.5626 37.8118 45.8334 36.3535 45.8334C34.2285 45.8334 31.9577 45.3334 29.5618 44.3126C27.166 43.2918 24.7702 41.9168 22.3952 40.1876C19.9993 38.4376 17.7285 36.5001 15.5618 34.3542C13.416 32.1876 11.4785 29.9168 9.74935 27.5418C8.04102 25.1668 6.66602 22.7918 5.66602 20.4376C4.66602 18.0626 4.16602 15.7917 4.16602 13.6251C4.16602 12.2084 4.41602 10.8542 4.91602 9.60425C5.41602 8.33342 6.20768 7.16675 7.31185 6.12508C8.64518 4.81258 10.1035 4.16675 11.6452 4.16675C12.2285 4.16675 12.8118 4.29175 13.3327 4.54175C13.8743 4.79175 14.3535 5.16675 14.7285 5.70841L19.5618 12.5209C19.9368 13.0417 20.2077 13.5209 20.3952 13.9792C20.5827 14.4167 20.6868 14.8542 20.6868 15.2501C20.6868 15.7501 20.541 16.2501 20.2493 16.7292C19.9785 17.2084 19.5827 17.7084 19.0827 18.2084L17.4993 19.8542C17.2702 20.0834 17.166 20.3542 17.166 20.6876C17.166 20.8542 17.1868 21.0001 17.2285 21.1667C17.291 21.3334 17.3535 21.4584 17.3952 21.5834C17.7702 22.2709 18.416 23.1668 19.3327 24.2501C20.2702 25.3334 21.2702 26.4376 22.3535 27.5418C23.4785 28.6459 24.5618 29.6667 25.666 30.6042C26.7493 31.5209 27.6452 32.1459 28.3535 32.5209C28.4577 32.5626 28.5827 32.6251 28.7285 32.6876C28.8952 32.7501 29.0618 32.7709 29.2493 32.7709C29.6035 32.7709 29.8743 32.6459 30.1035 32.4168L31.6868 30.8543C32.2077 30.3334 32.7077 29.9376 33.1868 29.6876C33.666 29.3959 34.1452 29.2501 34.666 29.2501C35.0618 29.2501 35.4785 29.3334 35.9368 29.5209C36.3952 29.7084 36.8743 29.9793 37.3952 30.3334L44.291 35.2293C44.8327 35.6043 45.2077 36.0417 45.4368 36.5626C45.6452 37.0834 45.7702 37.6043 45.7702 38.1876Z" stroke="#332532" stroke-width="1.5" stroke-miterlimit="10"/>
<path d="M38.5417 18.7502C38.5417 17.5002 37.5625 15.5835 36.1042 14.021C34.7708 12.5835 33 11.4585 31.25 11.4585" stroke="#332532" stroke-width="1.5" stroke-linecap="round" stroke-linejoin="round"/>
<path d="M45.8333 18.7501C45.8333 10.6876 39.3125 4.16675 31.25 4.16675" stroke="#332532" stroke-width="1.5" stroke-linecap="round" stroke-linejoin="round"/>
</svg>
