<svg viewBox="0 0 56 56" xmlns="http://www.w3.org/2000/svg">
<path d="M12.9126 21.2771C17.1116 21.2771 20.3085 22.3757 22.5035 24.5729C24.6984 26.7223 25.7959 29.9703 25.7959 34.3169C25.7959 38.4247 24.6984 41.6488 22.5035 43.9893C20.3085 46.3298 17.1116 47.5 12.9126 47.5C8.71357 47.5 5.51661 46.3298 3.32168 43.9893C1.12675 41.6488 0.0292802 38.4247 0.0292802 34.3169V34.1736C-0.113867 29.4449 0.26786 25.2893 1.17446 21.707C2.08106 18.0769 3.46482 15.1871 5.32574 13.0377C7.18666 10.8405 9.52474 9.43141 12.34 8.81047C15.2029 8.18953 18.5192 8.5 22.2887 9.74189L21.2151 17.5514C19.4019 16.9783 17.708 16.5961 16.1334 16.4051C14.5588 16.214 13.1273 16.3096 11.839 16.6917C10.5983 17.026 9.50088 17.6709 8.54656 18.6261C7.59225 19.5814 6.82879 20.895 6.2562 22.5667C8.11712 21.707 10.3359 21.2771 12.9126 21.2771ZM43.1167 21.2771C47.3157 21.2771 50.5127 22.3757 52.7076 24.5729C54.9025 26.7223 56 29.9703 56 34.3169C56 38.4247 54.9025 41.6488 52.7076 43.9893C50.5127 46.3298 47.3157 47.5 43.1167 47.5C38.9177 47.5 35.6969 46.3298 33.4542 43.9893C31.2593 41.6488 30.1619 38.4247 30.1619 34.3169V34.1736C30.0187 29.4449 30.4004 25.2893 31.307 21.707C32.2136 18.0769 33.5974 15.1871 35.4583 13.0377C37.3669 10.8405 39.7289 9.43141 42.5441 8.81047C45.4071 8.18953 48.7233 8.5 52.4929 9.74189L51.4193 17.5514C49.6061 16.9783 47.9122 16.5961 46.3375 16.4051C44.7629 16.214 43.3314 16.3096 42.0431 16.6917C40.8025 17.026 39.705 17.6709 38.7507 18.6261C37.7964 19.5814 37.0329 20.895 36.4603 22.5667C38.2736 21.707 40.4923 21.2771 43.1167 21.2771Z"/>
</svg>
