<svg width="50" height="50" viewBox="0 0 50 50" fill="none" xmlns="http://www.w3.org/2000/svg">
<path d="M41.6667 14.6667V35.3334C41.6667 38.5 41.375 40.75 40.625 42.3542C40.625 42.375 40.6041 42.4167 40.5833 42.4375C40.125 43.0209 39.5208 43.3125 38.8125 43.3125C37.7083 43.3125 36.375 42.5834 34.9375 41.0417C33.2292 39.2084 30.6041 39.3542 29.1041 41.3542L27 44.1459C26.1667 45.2709 25.0625 45.8334 23.9583 45.8334C22.8542 45.8334 21.75 45.2709 20.9166 44.1459L18.7917 41.3334C17.3125 39.3542 14.7083 39.2084 13 41.0209L12.9791 41.0417C10.625 43.5625 8.54171 43.9375 7.33337 42.4375C7.31254 42.4167 7.29167 42.375 7.29167 42.3542C6.54167 40.75 6.25 38.5 6.25 35.3334V14.6667C6.25 11.5 6.54167 9.25002 7.29167 7.64585C7.29167 7.62502 7.29171 7.60419 7.33337 7.58335C8.52087 6.06252 10.625 6.43752 12.9791 8.95835L13 8.97919C14.7083 10.7917 17.3125 10.6459 18.7917 8.66669L20.9166 5.85419C21.75 4.72919 22.8542 4.16669 23.9583 4.16669C25.0625 4.16669 26.1667 4.72919 27 5.85419L29.1041 8.64586C30.6041 10.6459 33.2292 10.7917 34.9375 8.95835C36.375 7.41669 37.7083 6.68752 38.8125 6.68752C39.5208 6.68752 40.125 7.00002 40.5833 7.58335C40.625 7.60419 40.625 7.62502 40.625 7.64585C41.375 9.25002 41.6667 11.5 41.6667 14.6667Z" stroke="#332532" stroke-width="1.5" stroke-linecap="round" stroke-linejoin="round"/>
<path d="M16.667 21.3542H33.3337" stroke="#332532" stroke-width="1.5" stroke-linecap="round" stroke-linejoin="round"/>
<path d="M16.667 28.6458H29.167" stroke="#332532" stroke-width="1.5" stroke-linecap="round" stroke-linejoin="round"/>
</svg>
