<svg viewBox="0 0 40 40" xmlns="http://www.w3.org/2000/svg">
<path d="m 20.005859,1.7851562 c -1.052985,-4.264e-4 -2.103642,0.1731206 -3.046875,0.5253907 a 1.50015,1.50015 0 0 0 -0.0039,0.00195 L 8.6386719,5.4472656 C 6.0026997,6.4341329 4.1835938,9.0642728 4.1835938,11.867188 V 24.25 c 0,2.627639 1.3778311,5.361224 3.484375,6.935547 a 1.50015,1.50015 0 0 0 0.00195,0 l 7.1660161,5.349609 c 2.98048,2.238072 7.380847,2.238072 10.361328,0 l 7.166015,-5.349609 a 1.50015,1.50015 0 0 0 0.002,0 C 34.471742,29.611221 35.849609,26.877639 35.849609,24.25 V 11.867188 c 0,-2.8142319 -1.819761,-5.4533053 -4.457031,-6.4394536 v 0.00195 L 23.076172,2.3125 a 1.50015,1.50015 0 0 0 -0.01172,-0.00586 C 22.114196,1.9600889 21.058845,1.7855827 20.005859,1.7851562 Z m -0.0039,3.0878907 c 0.779602,-4.26e-4 1.564643,0.08217 2.03125,0.2519531 4.42e-4,1.608e-4 0.0015,-1.609e-4 0.002,0 l 8.304688,3.1132812 a 1.50015,1.50015 0 0 0 0.002,0 c 1.19593,0.4471917 2.507812,2.3431778 2.507812,3.6289068 V 24.25 c 0,1.305561 -1.221157,3.738976 -2.28125,4.53125 l -7.166015,5.349609 a 1.50015,1.50015 0 0 0 -0.0039,0.0039 c -1.718288,1.291786 -5.045385,1.291786 -6.763672,0 a 1.50015,1.50015 0 0 0 -0.0039,-0.0039 L 9.4648438,28.78125 C 8.4047276,27.988973 7.1835937,25.555561 7.1835938,24.25 V 11.867188 c 0,-1.262808 1.3118317,-3.1641384 2.5078124,-3.6113286 a 1.50015,1.50015 0 0 0 0.00391,-0.00195 L 18.011719,5.1210938 c 0.440602,-0.1637635 1.2114,-0.2476213 1.990234,-0.2480469 z" />
  <path d="m 24.904297,13.785156 a 1.50015,1.50015 0 0 0 -1.03125,0.455078 l -6.107422,6.105469 -1.621094,-1.623047 a 1.50015,1.50015 0 1 0 -2.121093,2.121094 l 2.68164,2.683594 a 1.50015,1.50015 0 0 0 2.123047,0 l 7.166016,-7.166016 a 1.50015,1.50015 0 0 0 -1.089844,-2.576172 z" />
</svg>
