<svg viewBox="0 0 40 40" xmlns="http://www.w3.org/2000/svg">
<path d="M 19.998047 1.7421875 C 18.917897 1.7421875 17.905215 2.3504531 17.271484 3.2558594 L 10.332031 12.974609 C 9.5610346 14.047301 9.1887729 15.412865 9.7988281 16.595703 C 10.322422 17.610901 11.375836 18.090387 12.496094 18.212891 L 7.5039062 25.234375 C 6.5331208 26.570552 6.1061869 28.176297 6.8046875 29.541016 C 7.5031881 30.905734 9.0502745 31.5 10.699219 31.5 L 18.5 31.5 L 18.5 36.666016 C 18.47131 38.6945 21.528688 38.6945 21.5 36.666016 L 21.5 31.5 L 29.316406 31.5 C 30.965376 31.5 32.514372 30.905736 33.212891 29.541016 C 33.910114 28.178826 33.484547 26.576882 32.517578 25.242188 L 27.519531 18.210938 C 28.634324 18.085578 29.681897 17.606428 30.201172 16.591797 C 30.80903 15.40408 30.42537 14.037722 29.644531 12.966797 L 22.720703 3.2675781 C 22.095398 2.3556716 21.078197 1.7421875 19.998047 1.7421875 z M 19.998047 4.7421875 C 20.005347 4.7421875 20.071397 4.7100804 20.246094 4.9648438 A 1.50015 1.50015 0 0 0 20.261719 4.9882812 L 27.212891 14.720703 A 1.50015 1.50015 0 0 0 27.220703 14.734375 C 27.400629 14.981145 27.461216 15.124977 27.486328 15.203125 C 27.407807 15.230055 27.25458 15.267578 26.949219 15.267578 L 13.050781 15.267578 C 12.73858 15.267578 12.581097 15.228473 12.503906 15.201172 C 12.526791 15.123815 12.58647 14.976583 12.767578 14.724609 A 1.50015 1.50015 0 0 0 12.771484 14.720703 L 19.720703 4.9882812 A 1.50015 1.50015 0 0 0 19.728516 4.9765625 C 19.911385 4.7152988 19.990697 4.7421875 19.998047 4.7421875 z M 16.140625 18.267578 L 23.876953 18.267578 L 30.078125 26.986328 C 30.080707 26.990247 30.083319 26.994152 30.085938 26.998047 C 30.665152 27.79527 30.563347 28.132152 30.541016 28.175781 C 30.518697 28.21941 30.300836 28.5 29.316406 28.5 L 10.699219 28.5 C 9.7148325 28.5 9.4969413 28.219413 9.4746094 28.175781 C 9.4522774 28.132149 9.350473 27.79527 9.9296875 26.998047 C 9.932964 26.994157 9.9362163 26.990251 9.9394531 26.986328 L 16.140625 18.267578 z " />
</svg>
