<svg viewBox="0 0 37 36" xmlns="http://www.w3.org/2000/svg">
<path d="m 9.2519531,2.015625 c -3.0241258,0 -5.5,2.4503627 -5.5,5.4550781 V 23.833984 c 0,3.004716 2.4758635,5.455079 5.5,5.455078 h 1.1249999 c 0.923397,0 1.826241,0.367257 2.472656,1.013672 a 1.0001,1.0001 0 0 0 0.0039,0.0039 l 2.566406,2.535156 c 1.556187,1.536236 4.094203,1.536236 5.65039,0 l 2.564454,-2.535156 a 1.0001,1.0001 0 0 0 0.0039,-0.0039 c 0.650624,-0.650624 1.530989,-1.013671 2.472656,-1.013672 h 1.140625 c 3.028153,0 5.5,-2.46202 5.5,-5.455078 V 7.4707031 c 0,-3.0047154 -2.475874,-5.4550781 -5.5,-5.4550781 z m 0,2 H 27.251953 c 1.955874,0 3.5,1.5397936 3.5,3.4550781 V 23.833984 c 0,1.896943 -1.548152,3.455078 -3.5,3.455078 h -1.140625 c -1.458333,10e-7 -2.857343,0.570234 -3.886719,1.59961 l 0.0039,-0.0059 -2.564454,2.535157 c -0.783812,0.773764 -2.05603,0.773764 -2.839843,0 l -2.564453,-2.535157 0.0039,0.0059 c -1.033585,-1.033585 -2.440115,-1.59961 -3.886719,-1.59961 H 9.2519531 c -1.9558634,0 -3.5,-1.539793 -3.5,-3.455078 V 7.4707031 c 0,-1.9152845 1.5441259,-3.4550781 3.5,-3.4550781 z" />
  <path d="M18.2519 9.00995C16.8739 9.00995 15.7568 10.127 15.7568 11.5049C15.7568 12.8828 16.8739 13.9999 18.2519 13.9999C19.6298 13.9999 20.7469 12.8828 20.7469 11.5049C20.7469 10.127 19.6298 9.00995 18.2519 9.00995ZM13.7568 11.5049C13.7568 9.02233 15.7694 7.00995 18.2519 7.00995C20.7343 7.00995 22.7469 9.02233 22.7469 11.5049C22.7469 13.9874 20.7344 15.9999 18.2519 15.9999C15.7693 15.9999 13.7568 13.9874 13.7568 11.5049Z" />
  <path d="M11.252 23.4898C11.252 20.0562 14.5854 17.5999 18.252 17.5999C21.9185 17.5999 25.252 20.0562 25.252 23.4898C25.252 24.0421 24.8042 24.4898 24.252 24.4898C23.6997 24.4898 23.252 24.0421 23.252 23.4898C23.252 21.5234 21.2154 19.5999 18.252 19.5999C15.2885 19.5999 13.252 21.5234 13.252 23.4898C13.252 24.0421 12.8042 24.4898 12.252 24.4898C11.6997 24.4898 11.252 24.0421 11.252 23.4898Z" />
</svg>
