<svg width="45" height="45" viewBox="0 0 45 45" fill="none" xmlns="http://www.w3.org/2000/svg">
<path d="M15.7129 22.5L20.2316 27.0375L29.2879 17.9625" stroke="#D6B89C" stroke-width="3" stroke-linecap="round" stroke-linejoin="round"/>
<path d="M20.1566 4.59373C21.4504 3.48748 23.5691 3.48748 24.8816 4.59373L27.8441 7.14373C28.4066 7.63123 29.4566 8.02498 30.2066 8.02498H33.3941C35.3816 8.02498 37.0129 9.65623 37.0129 11.6437V14.8312C37.0129 15.5625 37.4066 16.6312 37.8941 17.1937L40.4441 20.1562C41.5504 21.45 41.5504 23.5687 40.4441 24.8812L37.8941 27.8437C37.4066 28.4062 37.0129 29.4562 37.0129 30.2062V33.3937C37.0129 35.3812 35.3816 37.0125 33.3941 37.0125H30.2066C29.4754 37.0125 28.4066 37.4062 27.8441 37.8937L24.8816 40.4437C23.5879 41.55 21.4691 41.55 20.1566 40.4437L17.1941 37.8937C16.6316 37.4062 15.5816 37.0125 14.8316 37.0125H11.5879C9.60039 37.0125 7.96914 35.3812 7.96914 33.3937V30.1875C7.96914 29.4562 7.57539 28.4062 7.10664 27.8437L4.57539 24.8625C3.48789 23.5687 3.48789 21.4687 4.57539 20.175L7.10664 17.1937C7.57539 16.6312 7.96914 15.5812 7.96914 14.85V11.625C7.96914 9.63748 9.60039 8.00623 11.5879 8.00623H14.8316C15.5629 8.00623 16.6316 7.61248 17.1941 7.12498L20.1566 4.59373Z" stroke="#D6B89C" stroke-width="3" stroke-linecap="round" stroke-linejoin="round"/>
</svg>
