<svg viewBox="0 0 17 17" xmlns="http://www.w3.org/2000/svg">
<path d="M16.4733 4.61271C16.5891 4.22645 16.4733 3.94263 15.922 3.94263H14.0991C13.6356 3.94263 13.4219 4.18781 13.306 4.45817C13.306 4.45817 12.379 6.71775 11.0658 8.18549C10.6409 8.61036 10.4478 8.74554 10.216 8.74554C10.1002 8.74554 9.93243 8.61036 9.93243 8.22413V4.61271C9.93243 4.1492 9.79792 3.94263 9.41163 3.94263H6.54704C6.25739 3.94263 6.08319 4.15775 6.08319 4.36163C6.08319 4.80103 6.73978 4.90236 6.80746 6.13838V8.82282C6.80746 9.41138 6.70117 9.51808 6.46942 9.51808C5.85144 9.51808 4.34821 7.24841 3.45665 4.65132C3.28193 4.14653 3.10668 3.94263 2.64079 3.94263H0.817877C0.297043 3.94263 0.192871 4.18781 0.192871 4.45817C0.192871 4.941 0.81088 7.33576 3.07042 10.503C4.57678 12.666 6.69913 13.8385 8.63038 13.8385C9.78911 13.8385 9.93246 13.578 9.93246 13.1295V11.4947C9.93246 10.9739 10.0422 10.8699 10.4092 10.8699C10.6795 10.8699 11.143 11.0051 12.2246 12.048C13.4605 13.284 13.6643 13.8385 14.3595 13.8385H16.1825C16.7033 13.8385 16.9637 13.578 16.8135 13.0641C16.6491 12.5519 16.059 11.8088 15.2759 10.9279C14.851 10.4257 14.2137 9.88502 14.0206 9.61459C13.7502 9.26701 13.8275 9.11248 14.0206 8.8035C14.0206 8.8035 16.2416 5.67487 16.4733 4.61271V4.61271Z" />
</svg>
