<svg viewBox="0 0 17 17" xmlns="http://www.w3.org/2000/svg">
<path d="M16.4024 8.03001C16.1333 3.43834 11.9612 -0.100399 7.15578 0.691268C3.84661 1.23752 1.19453 3.92125 0.679949 7.23042C0.379115 9.14625 0.774966 10.9592 1.63788 12.4554L0.933288 15.0758C0.774954 15.6696 1.32119 16.2079 1.90702 16.0417L4.48786 15.3292C5.65953 16.0179 7.02911 16.4138 8.49369 16.4138C12.9587 16.4138 16.6637 12.4792 16.4024 8.03001ZM12.365 11.4421C12.2937 11.5846 12.2066 11.7192 12.0958 11.8458C11.8979 12.0596 11.6841 12.2179 11.4466 12.3129C11.2091 12.4158 10.9479 12.4633 10.6708 12.4633C10.267 12.4633 9.83161 12.3684 9.38036 12.1704C8.92119 11.9725 8.46996 11.7113 8.01871 11.3867C7.55955 11.0542 7.13204 10.6821 6.72037 10.2783C6.3087 9.86667 5.94452 9.43124 5.61202 8.97999C5.28743 8.52874 5.0262 8.0775 4.8362 7.62625C4.6462 7.175 4.55121 6.7396 4.55121 6.32793C4.55121 6.05876 4.5987 5.79751 4.6937 5.56001C4.7887 5.3146 4.93913 5.09293 5.15288 4.89502C5.40622 4.64168 5.68328 4.52293 5.9762 4.52293C6.08703 4.52293 6.19785 4.54668 6.30076 4.59418C6.40368 4.64168 6.4987 4.71293 6.56995 4.81584L7.48826 6.11416C7.55951 6.21708 7.61494 6.30417 7.64661 6.39125C7.68619 6.47834 7.70203 6.5575 7.70203 6.63667C7.70203 6.73167 7.67037 6.82668 7.61496 6.92168C7.55954 7.01668 7.48827 7.11167 7.39327 7.20667L7.09243 7.52333C7.04493 7.57083 7.02913 7.61834 7.02913 7.68167C7.02913 7.71334 7.03701 7.745 7.04493 7.77667C7.06076 7.80834 7.06871 7.83209 7.07663 7.85584C7.14788 7.99042 7.27452 8.15666 7.44869 8.3625C7.63077 8.56833 7.82081 8.78209 8.02664 8.98792C8.24039 9.20167 8.44621 9.39166 8.65996 9.57374C8.8658 9.74791 9.03993 9.86668 9.17452 9.93793C9.19827 9.94585 9.22204 9.96166 9.24579 9.96958C9.27745 9.98541 9.30913 9.98543 9.34871 9.98543C9.41996 9.98543 9.46748 9.96168 9.51498 9.91418L9.81576 9.61334C9.91868 9.51043 10.0137 9.43918 10.1008 9.39168C10.1958 9.33626 10.2829 9.30458 10.3858 9.30458C10.465 9.30458 10.5441 9.32042 10.6312 9.36C10.7183 9.39959 10.8133 9.4471 10.9083 9.51835L12.2225 10.4525C12.3254 10.5238 12.3966 10.6108 12.4441 10.7058C12.4837 10.8088 12.5075 10.9038 12.5075 11.0146C12.46 11.1492 12.4283 11.2996 12.365 11.4421Z" />
</svg>
