<svg viewBox="0 0 41 39" fill="none" xmlns="http://www.w3.org/2000/svg">
<path fill-rule="evenodd" clip-rule="evenodd" d="M15.0606 12.89C17.3273 13.4037 18.9268 14.0998 18.9268 14.0998C18.9268 14.0998 19.1224 12.3663 19.8095 10.1462C21.225 5.573 24.7262 -1.06458 32.9 1.13411C49.787 5.6766 32.9313 38.3564 32.9313 38.3564C32.9313 38.3564 -4.276 38.4044 0.711507 19.7181C2.89218 11.548 10.3917 11.8318 15.0606 12.89ZM30.4503 34.281C30.7887 33.5426 31.1863 32.647 31.6132 31.6305C32.8839 28.6045 34.3768 24.5951 35.3594 20.5127C36.3636 16.3401 36.724 12.5292 36.1181 9.70571C35.8272 8.34996 35.3438 7.36662 34.7316 6.66265C34.1436 5.98663 33.2732 5.3767 31.861 4.9968C29.7367 4.42539 28.44 4.76834 27.563 5.26414C26.5666 5.82751 25.6576 6.85598 24.8779 8.29635C24.1079 9.71883 23.6008 11.2925 23.2871 12.5692C23.1335 13.1944 23.0336 13.7178 22.9735 14.0741C22.9435 14.2516 22.9238 14.3856 22.9124 14.4679C22.9067 14.5089 22.9031 14.5369 22.9014 14.5507C22.901 14.5536 22.9007 14.5558 22.9005 14.5575C22.9003 14.5591 22.9002 14.56 22.9002 14.5604C22.9001 14.5606 22.9001 14.5606 22.9001 14.5606L22.2945 19.9281L17.3418 17.7724L17.3404 17.7718C17.34 17.7716 17.3395 17.7714 17.339 17.7712C17.3375 17.7706 17.3353 17.7697 17.3326 17.7685C17.3197 17.7631 17.2937 17.7523 17.2553 17.7367C17.1783 17.7055 17.0523 17.6556 16.8836 17.5929C16.5448 17.467 16.0414 17.2922 15.423 17.113C14.1601 16.7471 12.5431 16.4002 10.9255 16.3563C9.28742 16.3119 7.94135 16.5852 6.95476 17.1665C6.08667 17.678 5.14242 18.6283 4.57621 20.7497C4.11843 22.4648 4.19566 23.7431 4.49295 24.7268C4.79412 25.7233 5.39978 26.6751 6.38341 27.601C8.44949 29.5459 11.867 31.0779 15.9857 32.1808C20.0105 33.2585 24.2486 33.8093 27.5316 34.0861C28.6423 34.1797 29.6313 34.241 30.4503 34.281Z" fill="#332532"/>
</svg>
