<svg viewBox="0 0 109 90" fill="none" xmlns="http://www.w3.org/2000/svg">
<path fill-rule="evenodd" clip-rule="evenodd" d="M54.8399 89.0764C54.8399 89.0764 56.4581 88.0389 59.1327 86.1707L57.9874 84.5311C56.6628 85.4563 55.6014 86.1747 54.8734 86.6604C54.8429 86.6807 54.8129 86.7007 54.7835 86.7203C54.7462 86.6979 54.7079 86.6749 54.6687 86.6514C53.9049 86.1922 52.7917 85.5119 51.4038 84.6329L50.3337 86.3225C53.1379 88.0986 54.8399 89.0764 54.8399 89.0764ZM41.4736 80.3933L42.6259 78.7587C39.9891 76.8998 37.1144 74.7855 34.1512 72.4608L32.9167 74.0343C35.9104 76.3829 38.8129 78.5176 41.4736 80.3933ZM24.7246 67.2085L26.0529 65.7133C23.4569 63.4069 20.9 60.9777 18.4775 58.4549L17.0349 59.8402C19.4995 62.4067 22.0953 64.8726 24.7246 67.2085ZM10.07 51.7852L11.6576 50.5689C9.48504 47.7332 7.58277 44.8419 6.05374 41.9295L4.28295 42.8592C5.87477 45.8912 7.84279 48.8782 10.07 51.7852ZM0.585368 32.9041L2.54365 32.4978C1.86016 29.204 1.79838 25.9484 2.48841 22.7584L0.533609 22.3356C-0.222875 25.8329 -0.147344 29.3731 0.585368 32.9041ZM67.5759 79.9803L66.3581 78.3938C68.8691 76.4662 71.6106 74.2816 74.4448 71.891L75.7343 73.4198C72.8736 75.8328 70.1078 78.0367 67.5759 79.9803ZM83.5579 66.4619L82.1874 65.0053C84.6686 62.6707 87.123 60.2215 89.4646 57.69L90.9328 59.0481C88.5553 61.6183 86.0676 64.1005 83.5579 66.4619ZM97.6781 51.0634L96.0867 49.8519C98.218 47.0523 100.119 44.2111 101.695 41.3654L103.445 42.3348C101.812 45.2805 99.8558 48.2028 97.6781 51.0634ZM107.48 32.7121L105.551 32.1848C106.45 28.897 106.755 25.6977 106.356 22.6255L108.34 22.3679C108.779 25.7492 108.435 29.2183 107.48 32.7121ZM104.618 12.7191C103.683 11.3442 102.566 9.9979 101.254 8.68539C100.104 7.53593 98.9492 6.53398 97.7924 5.66734L96.5933 7.26798C97.6692 8.07404 98.7527 9.01291 99.8394 10.0996C101.069 11.3295 102.105 12.5798 102.965 13.8442L104.618 12.7191ZM89.6493 1.63985L89.1461 3.57549C86.3581 2.85063 83.6031 2.82273 80.9266 3.29165L80.5814 1.32165C83.5066 0.809168 86.5533 0.834887 89.6493 1.63985ZM71.9889 4.36516L72.9204 6.13498C70.2813 7.52404 67.8338 9.2406 65.6663 11.0113L64.401 9.46251C66.6454 7.62893 69.2044 5.83077 71.9889 4.36516ZM45.2749 9.47013L44.0102 11.0195C41.8424 9.25014 39.3947 7.53467 36.7556 6.14611L37.6869 4.37616C40.4711 5.84112 43.0302 7.63802 45.2749 9.47013ZM29.0963 1.33237L28.7505 3.30224C26.0737 2.83228 23.319 2.85876 20.532 3.5815L20.03 1.64554C23.125 0.842888 26.1713 0.818817 29.0963 1.33237ZM11.8868 5.66842L13.0856 7.26934C12.0098 8.07488 10.9266 9.01328 9.84025 10.0996C8.5739 11.366 7.48341 12.6405 6.55337 13.919L4.93606 12.7424C5.93169 11.3738 7.09113 10.0203 8.42604 8.6854C9.57524 7.53619 10.7301 6.53461 11.8868 5.66842ZM51.905 15.7725L50.427 17.12C51.3365 18.1176 52.0455 18.96 52.5238 19.5489C52.7629 19.8431 52.944 20.0737 53.0635 20.228C53.0922 20.2651 53.1173 20.2978 53.1389 20.3259C53.1621 20.3563 53.1812 20.3814 53.1959 20.4009L53.2265 20.4414L53.2327 20.4498L53.2334 20.4506L54.8411 22.6208L56.447 20.4497L56.4478 20.4487L56.4541 20.4403L56.4846 20.3996C56.513 20.3621 56.5572 20.304 56.6169 20.2267C56.7363 20.0722 56.9174 19.8415 57.1563 19.547C57.6343 18.9578 58.3428 18.1146 59.2518 17.1164L57.773 15.7698C57.1227 16.484 56.5708 17.1224 56.1271 17.6517C55.8744 17.9533 55.6568 18.2195 55.4762 18.4441C55.0595 18.9623 54.8399 19.2593 54.8399 19.2593C54.8399 19.2593 54.6199 18.9625 54.2029 18.4445C54.0221 18.22 53.8044 17.954 53.5515 17.6526C53.1076 17.1238 52.5555 16.486 51.905 15.7725Z" fill="#332532"/>
</svg>
