<svg viewBox="0 0 170 70" fill="none" xmlns="http://www.w3.org/2000/svg">
<path d="M79.73 24.9336H80.7068V40.854H80.0049V25.7583L72.4892 41.1523L65.0145 25.7583V40.854H64.377V24.9336H65.3946L72.5536 39.6257L79.73 24.9336Z" fill="black"/>
<path d="M84.6958 40.854L92.6384 24.5535L100.599 40.854H99.8559L96.8437 34.783H88.3279L85.3567 40.854H84.6958ZM96.5864 34.1689L92.5741 26.0157L88.6028 34.1689H96.5864Z" fill="black"/>
<path d="M107.477 34.4847V40.854H106.775V34.4847L101.938 24.9336H102.698L107.178 33.7419L111.577 24.9336H112.214L107.477 34.4847Z" fill="black"/>
<path d="M115.992 40.854V24.9336H116.671C117.591 24.9336 118.363 25.2202 118.987 25.7934C119.607 26.3665 119.917 27.0996 119.917 27.9925C119.917 28.5306 119.743 29.0784 119.396 29.636C119.049 30.1936 118.644 30.5582 118.18 30.7297C119.268 30.9988 120.172 31.5798 120.893 32.4727C121.615 33.3617 121.975 34.4827 121.975 35.8357C121.975 37.1887 121.459 38.3624 120.426 39.3567C119.392 40.3549 118.141 40.854 116.671 40.854H115.992ZM116.84 31.1099H116.671V40.2633H116.84C118.057 40.2633 119.108 39.809 119.993 38.9005C120.878 37.9959 121.32 36.9217 121.32 35.6778C121.32 34.4301 120.882 33.3578 120.004 32.461C119.127 31.5603 118.072 31.1099 116.84 31.1099ZM116.84 25.5302H116.671V30.5367H116.84C117.476 30.5367 118.039 30.2794 118.531 29.7647C119.018 29.2461 119.262 28.6515 119.262 27.9808C119.262 27.3063 119.02 26.7292 118.536 26.2496C118.057 25.77 117.491 25.5302 116.84 25.5302Z" fill="black"/>
<path d="M125.971 40.854V24.9336H131.679V25.5477H126.673V34.2098H130.854V34.8239H126.673V40.2399H131.679V40.854H125.971Z" fill="black"/>
<path d="M64.377 64.8457V48.9253H65.0554C65.9756 48.9253 66.7477 49.2119 67.3715 49.7851C67.9954 50.3582 68.3073 51.0893 68.3073 51.9784C68.3073 52.5164 68.1338 53.0662 67.7868 53.6277C67.4398 54.1853 67.0323 54.5499 66.5644 54.7214C67.6562 54.9905 68.5627 55.5695 69.2841 56.4585C70.0054 57.3514 70.3661 58.4744 70.3661 59.8274C70.3661 61.1765 69.8495 62.3502 68.8162 63.3484C67.7829 64.3466 66.5293 64.8457 65.0554 64.8457H64.377ZM65.225 55.1016H65.0554V64.255H65.225C66.4455 64.255 67.4983 63.8007 68.3834 62.8922C69.2646 61.9876 69.7052 60.9134 69.7052 59.6695C69.7052 58.4218 69.2665 57.3495 68.3892 56.4527C67.5119 55.552 66.4572 55.1016 65.225 55.1016ZM65.225 49.516H65.0554V54.5284H65.225C65.8645 54.5284 66.4279 54.2711 66.9153 53.7564C67.4027 53.2378 67.6464 52.6432 67.6464 51.9725C67.6464 51.2979 67.4066 50.7209 66.927 50.2413C66.4435 49.7578 65.8762 49.516 65.225 49.516Z" fill="black"/>
<path d="M73.4019 64.8457L81.3445 48.5393L89.3047 64.8457H88.5619L85.5439 58.7747H77.034L74.0628 64.8457H73.4019ZM85.2924 58.1606L81.2802 50.0074L77.3088 58.1606H85.2924Z" fill="black"/>
<path d="M93.293 64.8457V48.9253H93.9714C94.8916 48.9253 95.6637 49.2119 96.2875 49.7851C96.9114 50.3582 97.2234 51.0893 97.2234 51.9784C97.2234 52.5164 97.0498 53.0662 96.7028 53.6277C96.3558 54.1853 95.9483 54.5499 95.4804 54.7214C96.5722 54.9905 97.4787 55.5695 98.2001 56.4585C98.9214 57.3514 99.2821 58.4744 99.2821 59.8274C99.2821 61.1765 98.7655 62.3502 97.7322 63.3484C96.6989 64.3466 95.4453 64.8457 93.9714 64.8457H93.293ZM94.1469 55.1016H93.9714V64.255H94.1469C95.3634 64.255 96.4143 63.8007 97.2994 62.8922C98.1806 61.9876 98.6212 60.9134 98.6212 59.6695C98.6212 58.4218 98.1826 57.3495 97.3052 56.4527C96.4279 55.552 95.3751 55.1016 94.1469 55.1016ZM94.1469 49.516H93.9714V54.5284H94.1469C94.7825 54.5284 95.3439 54.2711 95.8313 53.7564C96.3187 53.2378 96.5624 52.6432 96.5624 51.9725C96.5624 51.2979 96.3226 50.7209 95.843 50.2413C95.3595 49.7578 94.7942 49.516 94.1469 49.516Z" fill="black"/>
<path d="M106.16 58.4764V64.8457H105.459V58.4764L100.622 48.9253H101.382L105.862 57.7336L110.26 48.9253H110.898L106.16 58.4764Z" fill="black"/>
<path d="M123.871 64.8457V48.9253H124.549C125.469 48.9253 126.239 49.2119 126.859 49.7851C127.483 50.3582 127.795 51.0893 127.795 51.9784C127.795 52.5164 127.622 53.0662 127.275 53.6277C126.928 54.1853 126.52 54.5499 126.052 54.7214C127.144 54.9905 128.051 55.5695 128.772 56.4585C129.493 57.3514 129.854 58.4744 129.854 59.8274C129.854 61.1765 129.337 62.3502 128.304 63.3484C127.271 64.3466 126.019 64.8457 124.549 64.8457H123.871ZM124.719 55.1016H124.549V64.255H124.719C125.935 64.255 126.986 63.8007 127.871 62.8922C128.756 61.9876 129.199 60.9134 129.199 59.6695C129.199 58.4218 128.76 57.3495 127.883 56.4527C127.006 55.552 125.951 55.1016 124.719 55.1016ZM124.719 49.516H124.549V54.5284H124.719C125.354 54.5284 125.916 54.2711 126.403 53.7564C126.894 53.2378 127.14 52.6432 127.14 51.9725C127.14 51.2979 126.898 50.7209 126.415 50.2413C125.935 49.7578 125.37 49.516 124.719 49.516Z" fill="black"/>
<path d="M141.318 65.1206C139.126 65.1206 137.228 64.2939 135.621 62.6407C134.015 60.9835 133.211 59.0476 133.211 56.8328C133.211 54.6181 134.024 52.6997 135.65 51.0776C137.28 49.4595 139.234 48.6504 141.511 48.6504C143.788 48.6504 145.734 49.4556 147.348 51.0659C148.962 52.6802 149.769 54.6025 149.769 56.8328C149.769 59.0632 148.97 61.003 147.371 62.6524C145.773 64.2978 143.862 65.1206 141.64 65.1206H141.318ZM149.067 56.8738C149.067 54.7877 148.329 52.998 146.851 51.5046C145.373 50.0112 143.589 49.2645 141.499 49.2645C139.413 49.2645 137.627 50.0112 136.142 51.5046C134.652 52.998 133.907 54.7877 133.907 56.8738C133.907 58.9637 134.652 60.7574 136.142 62.2547C137.627 63.7559 139.409 64.5064 141.487 64.5064C143.57 64.5064 145.354 63.7559 146.839 62.2547C148.325 60.7574 149.067 58.9637 149.067 56.8738Z" fill="black"/>
<path d="M161.555 65.1206C159.359 65.1206 157.459 64.2939 155.852 62.6407C154.246 60.9835 153.442 59.0476 153.442 56.8328C153.442 54.6181 154.257 52.6997 155.887 51.0776C157.513 49.4595 159.465 48.6504 161.742 48.6504C164.023 48.6504 165.97 49.4556 167.585 51.0659C169.195 52.6802 170 54.6025 170 56.8328C170 59.0632 169.201 61.003 167.602 62.6524C166.004 64.2978 164.093 65.1206 161.87 65.1206H161.555ZM169.304 56.8738C169.304 54.7877 168.563 52.998 167.082 51.5046C165.604 50.0112 163.822 49.2645 161.736 49.2645C159.646 49.2645 157.858 50.0112 156.373 51.5046C154.887 52.998 154.144 54.7877 154.144 56.8738C154.144 58.9637 154.887 60.7574 156.373 62.2547C157.858 63.7559 159.642 64.5064 161.724 64.5064C163.803 64.5064 165.586 63.7559 167.076 62.2547C168.561 60.7574 169.304 58.9637 169.304 56.8738Z" fill="black"/>
<path d="M25.1894 60.199C25.037 60.199 24.8847 60.1409 24.7684 60.0246C23.7377 58.9939 22.7159 58.08 21.7278 57.1962C18.7042 54.4919 16.0928 52.1564 16.0928 48.682C16.0928 46.0098 18.2667 43.8359 20.9388 43.8359C23.0409 43.8359 24.2364 44.822 25.1894 46.3823C26.1424 44.822 27.3379 43.8359 29.44 43.8359C32.1148 43.8359 34.2909 46.0098 34.2909 48.682C34.2909 52.1548 31.6796 54.4892 28.656 57.1924C27.6661 58.0774 26.6426 58.9923 25.6104 60.0246C25.4943 60.1409 25.3418 60.199 25.1894 60.199ZM20.9389 45.0267C18.9234 45.0267 17.2836 46.6664 17.2836 48.682C17.2836 51.6238 19.5952 53.6912 22.5216 56.3087C23.3883 57.0839 24.2808 57.8821 25.1894 58.7672C26.0999 57.8805 26.9939 57.0811 27.8624 56.3046C30.7887 53.6885 33.1001 51.6221 33.1001 48.6818C33.1001 46.6663 31.4581 45.0265 29.44 45.0265C27.7288 45.0265 26.7906 45.748 25.7219 47.8855C25.621 48.0871 25.4148 48.2146 25.1893 48.2146C24.9638 48.2146 24.7577 48.0872 24.6568 47.8855C23.5883 45.7481 22.65 45.0267 20.9389 45.0267Z" fill="#332532"/>
<path d="M12.0939 35.1937C11.9099 35.1937 11.7285 35.1087 11.612 34.9484C11.4185 34.6825 11.4773 34.3102 11.7434 34.1168L24.0409 25.173C24.7292 24.6725 25.6539 24.6725 26.342 25.173L33.7275 30.5444C33.9934 30.7378 34.0523 31.1101 33.8589 31.376C33.6654 31.642 33.2931 31.7007 33.0273 31.5073L25.6419 26.136C25.3725 25.9402 25.0108 25.9401 24.7414 26.136L12.4439 35.0798C12.3379 35.1567 12.2154 35.1937 12.0939 35.1937Z" fill="#332532"/>
<path d="M32.2169 58.4191C32.871 58.3536 33.4547 58.8311 33.52 59.4854C33.5855 60.1397 33.108 60.7233 32.4537 60.7886C31.7994 60.854 31.2158 60.3766 31.1506 59.7222C31.0849 59.0679 31.5626 58.4846 32.2169 58.4191Z" fill="#332532"/>
<path d="M36.98 32.2228C37.6342 32.1574 38.2179 32.6348 38.2832 33.2892C38.3487 33.9435 37.8712 34.5271 37.2169 34.5924C36.5626 34.6578 35.979 34.1805 35.9137 33.526C35.8481 32.8717 36.3257 32.2883 36.98 32.2228Z" fill="#332532"/>
<path d="M48.8873 29.8412C49.5414 29.7758 50.1251 30.2532 50.1904 30.9076C50.2559 31.5619 49.7784 32.1455 49.1241 32.2109C48.4697 32.2762 47.8862 31.7989 47.821 31.1444C47.7554 30.4901 48.233 29.9067 48.8873 29.8412Z" fill="#332532"/>
<path d="M35.7896 19.1249C36.4438 19.0595 37.0275 19.5369 37.0927 20.1913C37.1582 20.8456 36.6807 21.4292 36.0264 21.4945C35.3721 21.5599 34.7886 21.0826 34.7233 20.4281C34.6577 19.7738 35.1353 19.1904 35.7896 19.1249Z" fill="#332532"/>
<path d="M11.9746 19.1249C12.6289 19.0595 13.2125 19.5369 13.2779 20.1913C13.3434 20.8456 12.8659 21.4292 12.2116 21.4945C11.5572 21.5599 10.9737 21.0826 10.9084 20.4281C10.8429 19.7738 11.3203 19.1904 11.9746 19.1249Z" fill="#332532"/>
<path d="M1.25832 45.3209C1.91262 45.2556 2.49619 45.7329 2.56157 46.3873C2.62706 47.0416 2.14957 47.6252 1.49527 47.6905C0.840849 47.756 0.257394 47.2785 0.192023 46.6242C0.126652 45.9699 0.604014 45.3864 1.25832 45.3209Z" fill="#332532"/>
<path d="M48.8873 56.0372C49.5414 55.9719 50.1251 56.4492 50.1904 57.1037C50.2559 57.758 49.7784 58.3415 49.1241 58.4068C48.4698 58.4723 47.8862 57.9948 47.821 57.3405C47.7554 56.6862 48.233 56.1027 48.8873 56.0372Z" fill="#332532"/>
<path d="M10.7842 44.1298C11.4385 44.0644 12.0221 44.5418 12.0875 45.1962C12.153 45.8505 11.6755 46.4341 11.0212 46.4993C10.3667 46.5648 9.78329 46.0873 9.71792 45.433C9.65243 44.7786 10.1299 44.1953 10.7842 44.1298Z" fill="#332532"/>
<path fill-rule="evenodd" clip-rule="evenodd" d="M47.203 39.9566H44.8388V63.771H45.4336C47.075 63.771 48.4104 65.1064 48.4104 66.7478C48.4104 68.3892 47.075 69.7246 45.4336 69.7246H4.94898C3.30757 69.7246 1.97217 68.3892 1.97217 66.7478C1.97217 65.1064 3.30757 63.771 4.94898 63.771H5.54492V54.8407V39.9566H3.18027C2.31711 39.9566 1.58708 39.4263 1.32012 38.6055C1.05315 37.7846 1.33178 36.9262 2.02979 36.4186L24.0411 20.4103C24.3776 20.1654 24.7754 20.0361 25.1916 20.0361C25.6079 20.0361 26.0056 20.1654 26.3421 20.4103L48.3536 36.4185C49.0516 36.9262 49.3303 37.7846 49.0633 38.6055C48.7963 39.4263 48.0661 39.9566 47.203 39.9566ZM6.73565 55.4361H12.0939C12.4227 55.4361 12.6893 55.1696 12.6893 54.8407C12.6893 54.5118 12.4227 54.2454 12.0939 54.2454H6.73565V39.9568H43.6481V59.0083H35.9079C35.579 59.0083 35.3125 59.2748 35.3125 59.6037C35.3125 59.9325 35.579 60.199 35.9079 60.199H43.6481V63.771H6.73565V55.4361ZM25.1916 21.2269C25.0288 21.2269 24.8731 21.2775 24.7414 21.3732L2.73005 37.3815C2.39855 37.6227 2.36926 37.9817 2.45238 38.2373C2.53549 38.4928 2.7703 38.766 3.18015 38.766H47.203C47.6129 38.766 47.8477 38.493 47.9308 38.2373C48.0139 37.9817 47.9846 37.6227 47.6531 37.3815L25.6419 21.3732C25.5102 21.2773 25.3545 21.2269 25.1916 21.2269ZM6.14028 64.9621H44.2435C44.2503 64.9621 44.257 64.9619 44.2637 64.9617H45.4336C46.4185 64.9617 47.2197 65.763 47.2197 66.7478C47.2197 67.7327 46.4185 68.5339 45.4336 68.5339H4.94898C3.96413 68.5339 3.16289 67.7327 3.16289 66.7478C3.16289 65.763 3.96413 64.9617 4.94898 64.9617H6.12004L6.12944 64.962L6.14028 64.9621Z" fill="#332532"/>
<path d="M39.4802 53.0547H37.0988C36.7699 53.0547 36.5034 52.7883 36.5034 52.4594C36.5034 52.1305 36.7699 51.864 37.0988 51.864H39.4802C39.8091 51.864 40.0756 52.1305 40.0756 52.4594C40.0756 52.7883 39.8091 53.0547 39.4802 53.0547Z" fill="#332532"/>
<path d="M19.2378 60.199H15.6657C15.3369 60.199 15.0703 59.9325 15.0703 59.6037C15.0703 59.2748 15.3369 59.0083 15.6657 59.0083H19.2378C19.5666 59.0083 19.8332 59.2748 19.8332 59.6037C19.8332 59.9325 19.5666 60.199 19.2378 60.199Z" fill="#332532"/>
<path d="M3.75855 29.2402C2.11714 29.2402 0.781738 27.9048 0.781738 26.2634C0.781738 24.622 2.11714 23.2866 3.75855 23.2866C5.39997 23.2866 6.73536 24.622 6.73536 26.2634C6.73536 27.9048 5.39997 29.2402 3.75855 29.2402ZM3.75855 24.4773C2.7737 24.4773 1.97246 25.2786 1.97246 26.2634C1.97246 27.2483 2.7737 28.0495 3.75855 28.0495C4.7434 28.0495 5.54464 27.2483 5.54464 26.2634C5.54464 25.2786 4.7434 24.4773 3.75855 24.4773Z" fill="#332532"/>
<path d="M45.4341 26.8588C43.1362 26.8588 41.2666 24.9892 41.2666 22.6912C41.2666 20.3932 43.1362 18.5237 45.4341 18.5237C47.7321 18.5237 49.6017 20.3932 49.6017 22.6912C49.6017 24.9892 47.7321 26.8588 45.4341 26.8588ZM45.4341 19.7144C43.7927 19.7144 42.4573 21.0498 42.4573 22.6912C42.4573 24.3326 43.7927 25.668 45.4341 25.668C47.0756 25.668 48.411 24.3326 48.411 22.6912C48.411 21.0498 47.0756 19.7144 45.4341 19.7144Z" fill="#332532"/>
<path d="M8.47313 21.2989L8.29425 20.2052L7.88021 17.6918L9.68878 15.8965L10.4738 15.1186L9.38403 14.9524L6.86991 14.57L5.73045 12.2894L5.23691 11.302L4.74337 12.2894L3.60389 14.57L1.08977 14.9524L0 15.1186L0.785041 15.8965L2.59361 17.6918L2.17955 20.2052L2.00069 21.2989L2.97784 20.7903L5.23691 19.62L7.49596 20.7903L8.47313 21.2989ZM7.0223 19.2942L5.49195 18.4997L5.23691 18.3667L4.98185 18.4997L3.45152 19.2942L3.72976 17.5854L3.77614 17.3028L3.57408 17.1033L2.34519 15.8832L4.05107 15.6239L4.33592 15.5807L4.4618 15.3247L5.23691 13.7755L6.01201 15.3247L6.13788 15.5807L6.42275 15.6239L8.12863 15.8832L6.89974 17.1033L6.69768 17.3028L6.74406 17.5854L7.0223 19.2942V19.2942Z" fill="#FFDD59"/>
<path d="M22.5107 18.9593L22.3318 17.8656L21.9178 15.3522L23.7264 13.5569L24.5114 12.779L23.4216 12.6128L20.9075 12.2304L19.768 9.9498L19.2745 8.9624L18.781 9.9498L17.6415 12.2304L15.1274 12.6128L14.0376 12.779L14.8226 13.5569L16.6312 15.3522L16.2171 17.8656L16.0383 18.9593L17.0154 18.4507L19.2745 17.2804L21.5336 18.4507L22.5107 18.9593ZM21.0599 16.9546L19.5295 16.1601L19.2745 16.0271L19.0195 16.1601L17.4891 16.9546L17.7674 15.2458L17.8137 14.9632L17.6117 14.7637L16.3828 13.5436L18.0887 13.2843L18.3735 13.2411L18.4994 12.9851L19.2745 11.4359L20.0496 12.9851L20.1755 13.2411L20.4603 13.2843L22.1662 13.5436L20.9373 14.7637L20.7353 14.9632L20.7817 15.2458L21.0599 16.9546V16.9546Z" fill="#FFDD59"/>
<path d="M42.4067 15.4502L42.1302 13.7598L41.4903 9.87539L44.2855 7.10084L45.4988 5.89852L43.8145 5.64162L39.9289 5.05075L38.1679 1.52602L37.4051 0L36.6424 1.52602L34.8813 5.05075L30.9958 5.64162L29.3115 5.89852L30.5248 7.10084L33.3199 9.87539L32.68 13.7598L32.4036 15.4502L33.9138 14.6641L37.4051 12.8555L40.8965 14.6641L42.4067 15.4502ZM40.1644 12.3519L37.7993 11.1239L37.4051 10.9184L37.011 11.1239L34.6458 12.3519L35.0758 9.71097L35.1475 9.27422L34.8352 8.96594L32.936 7.08028L35.5724 6.67951L36.0127 6.6127L36.2072 6.21709L37.4051 3.82273L38.6031 6.21709L38.7976 6.6127L39.2378 6.67951L41.8743 7.08028L39.975 8.96594L39.6627 9.27422L39.7344 9.71097L40.1644 12.3519V12.3519Z" fill="#FFDD59"/>
<path d="M57.603 51.1805L57.4241 50.0868L57.0101 47.5734L58.8187 45.7781L59.6037 45.0002L58.5139 44.834L55.9998 44.4516L54.8603 42.171L54.3668 41.1836L53.8733 42.171L52.7338 44.4516L50.2196 44.834L49.1299 45.0002L49.9149 45.7781L51.7235 47.5734L51.3094 50.0868L51.1306 51.1805L52.1077 50.6719L54.3668 49.5016L56.6258 50.6719L57.603 51.1805ZM56.1522 49.1758L54.6218 48.3813L54.3668 48.2483L54.1117 48.3813L52.5814 49.1758L52.8596 47.467L52.906 47.1844L52.704 46.9849L51.4751 45.7648L53.181 45.5055L53.4658 45.4623L53.5917 45.2063L54.3668 43.6571L55.1419 45.2063L55.2678 45.4623L55.5526 45.5055L57.2585 45.7648L56.0296 46.9849L55.8276 47.1844L55.8739 47.467L56.1522 49.1758V49.1758Z" fill="#FFDD59"/>
</svg>
