<svg viewBox="0 0 70 70" xmlns="http://www.w3.org/2000/svg">
<path d="M34.276 2.68907C34.5288 2.75714 34.7851 2.72195 35 2.60928C35.2149 2.72195 35.4712 2.75714 35.724 2.68907L35 0L34.276 2.68907ZM36.1321 4.20477C35.5988 4.34836 35.2829 4.89708 35.4265 5.43037L36.3546 8.8773C36.4982 9.41059 37.0469 9.72651 37.5802 9.58292L36.1321 4.20477ZM37.9883 11.0986C37.455 11.2422 37.1391 11.7909 37.2827 12.3242L38.2107 15.7711C38.3543 16.3044 38.903 16.6203 39.4363 16.4768L37.9883 11.0986ZM39.8444 17.9925C39.3111 18.136 38.9952 18.6848 39.1388 19.2181L40.0669 22.665C40.2105 23.1983 40.7592 23.5142 41.2925 23.3706L39.8444 17.9925ZM41.7006 24.8863C41.1673 25.0299 40.8514 25.5786 40.995 26.1119L41.6087 28.3913L43.8881 29.005C44.4214 29.1486 44.9701 28.8327 45.1137 28.2994L42.4246 27.5754L41.7006 24.8863ZM46.6294 28.7075C46.4858 29.2408 46.8017 29.7895 47.335 29.9331L50.7819 30.8612C51.3152 31.0048 51.864 30.6889 52.0075 30.1556L46.6294 28.7075ZM53.5232 30.5637C53.3797 31.097 53.6956 31.6457 54.2289 31.7893L57.6758 32.7173C58.2091 32.8609 58.7578 32.545 58.9014 32.0117L53.5232 30.5637ZM60.4171 32.4198C60.2735 32.9531 60.5894 33.5018 61.1227 33.6454L64.5696 34.5735C65.1029 34.7171 65.6516 34.4012 65.7952 33.8679L60.4171 32.4198ZM67.3109 34.276C67.2429 34.5288 67.2781 34.7851 67.3907 35C67.2781 35.2149 67.2429 35.4712 67.3109 35.724L70 35L67.3109 34.276ZM65.7952 36.1321C65.6516 35.5988 65.1029 35.2829 64.5696 35.4265L61.1227 36.3546C60.5894 36.4982 60.2735 37.0469 60.4171 37.5802L65.7952 36.1321ZM58.9014 37.9883C58.7578 37.455 58.2091 37.1391 57.6758 37.2827L54.2289 38.2107C53.6956 38.3543 53.3797 38.903 53.5232 39.4363L58.9014 37.9883ZM52.0075 39.8444C51.864 39.3111 51.3152 38.9952 50.7819 39.1388L47.335 40.0669C46.8017 40.2105 46.4858 40.7592 46.6294 41.2925L52.0075 39.8444ZM45.1137 41.7006C44.9701 41.1673 44.4214 40.8514 43.8881 40.995L41.6087 41.6087L40.995 43.8881C40.8514 44.4214 41.1673 44.9701 41.7006 45.1137L42.4246 42.4246L45.1137 41.7006ZM41.2925 46.6294C40.7592 46.4858 40.2105 46.8017 40.0669 47.335L39.1388 50.7819C38.9952 51.3152 39.3111 51.864 39.8444 52.0075L41.2925 46.6294ZM39.4363 53.5232C38.903 53.3797 38.3543 53.6956 38.2107 54.2289L37.2827 57.6758C37.1391 58.2091 37.455 58.7578 37.9883 58.9014L39.4363 53.5232ZM37.5802 60.4171C37.0469 60.2735 36.4982 60.5894 36.3546 61.1227L35.4265 64.5696C35.2829 65.1029 35.5988 65.6516 36.1321 65.7952L37.5802 60.4171ZM35.724 67.3109C35.4712 67.2429 35.2149 67.2781 35 67.3907C34.7851 67.2781 34.5288 67.2429 34.276 67.3109L35 70L35.724 67.3109ZM33.8679 65.7952C34.4012 65.6516 34.7171 65.1029 34.5735 64.5696L33.6454 61.1227C33.5018 60.5894 32.9531 60.2735 32.4198 60.4171L33.8679 65.7952ZM32.0117 58.9014C32.545 58.7578 32.8609 58.2091 32.7173 57.6758L31.7893 54.2289C31.6457 53.6956 31.097 53.3797 30.5637 53.5232L32.0117 58.9014ZM30.1556 52.0075C30.6889 51.864 31.0048 51.3152 30.8612 50.7819L29.9331 47.335C29.7895 46.8017 29.2408 46.4858 28.7075 46.6294L30.1556 52.0075ZM28.2994 45.1137C28.8327 44.9701 29.1486 44.4214 29.005 43.8881L28.3913 41.6087L26.1119 40.995C25.5786 40.8514 25.0299 41.1673 24.8863 41.7006L27.5754 42.4246L28.2994 45.1137ZM23.3706 41.2925C23.5142 40.7592 23.1983 40.2105 22.665 40.0669L19.2181 39.1388C18.6848 38.9952 18.136 39.3111 17.9925 39.8444L23.3706 41.2925ZM16.4768 39.4363C16.6203 38.903 16.3044 38.3543 15.7711 38.2107L12.3242 37.2827C11.7909 37.1391 11.2422 37.455 11.0986 37.9883L16.4768 39.4363ZM9.58292 37.5802C9.72651 37.0469 9.41059 36.4982 8.87729 36.3546L5.43037 35.4265C4.89708 35.2829 4.34836 35.5988 4.20477 36.1321L9.58292 37.5802ZM2.68907 35.724C2.75714 35.4712 2.72195 35.2149 2.60928 35C2.72195 34.7851 2.75714 34.5288 2.68907 34.276L0 35L2.68907 35.724ZM4.20477 33.8679C4.34836 34.4012 4.89708 34.7171 5.43037 34.5735L8.8773 33.6454C9.41059 33.5018 9.72651 32.9531 9.58292 32.4198L4.20477 33.8679ZM11.0986 32.0117C11.2422 32.545 11.7909 32.8609 12.3242 32.7173L15.7711 31.7893C16.3044 31.6457 16.6203 31.097 16.4768 30.5637L11.0986 32.0117ZM17.9925 30.1556C18.136 30.6889 18.6848 31.0048 19.2181 30.8612L22.665 29.9331C23.1983 29.7895 23.5142 29.2408 23.3706 28.7075L17.9925 30.1556ZM24.8863 28.2994C25.0299 28.8327 25.5786 29.1486 26.1119 29.005L28.3913 28.3913L29.005 26.1119C29.1486 25.5786 28.8327 25.0299 28.2994 24.8863L27.5754 27.5754L24.8863 28.2994ZM28.7075 23.3706C29.2408 23.5142 29.7895 23.1983 29.9331 22.665L30.8612 19.2181C31.0048 18.6848 30.6889 18.136 30.1556 17.9925L28.7075 23.3706ZM30.5637 16.4768C31.097 16.6203 31.6457 16.3044 31.7893 15.7711L32.7173 12.3242C32.8609 11.7909 32.545 11.2422 32.0117 11.0986L30.5637 16.4768ZM32.4198 9.58292C32.9531 9.72651 33.5018 9.41059 33.6454 8.87729L34.5735 5.43037C34.7171 4.89708 34.4012 4.34836 33.8679 4.20477L32.4198 9.58292Z" />
</svg>
