<svg viewBox="0 0 46 46" fill="none" xmlns="http://www.w3.org/2000/svg">
  <path d="M 11.708984,0.89257812 11.841797,2.9140625 12.734375,16.615234 0.36523438,26.373047 15.634766,30.255859 21.091797,45.035156 29.503906,31.712891 45.246094,31.089844 35.175781,18.972656 39.447266,3.8085938 24.8125,9.6425781 Z m 2.259766,3.91406248 9.732422,6.4980474 0.875,0.583984 L 25.552734,11.5 36.423828,7.1660156 33.25,18.431641 l -0.285156,1.011718 0.671875,0.808594 7.480469,9 -11.69336,0.462891 -1.050781,0.04102 L 27.8125,30.644531 21.564453,40.541016 17.511719,29.5625 17.146484,28.576172 16.126953,28.316406 4.7851562,25.433594 l 9.1894528,-7.248047 0.824219,-0.652344 -0.06836,-1.048828 z" fill="#332532" />
</svg>
