<svg viewBox="0 0 129 123" fill="none" xmlns="http://www.w3.org/2000/svg">
<path d="M108.32 53.827L86.3866 75.2067L91.5643 105.395L64.4532 91.1423L37.3421 105.395L42.5198 75.2067L20.5865 53.827L50.8976 49.4225L64.4532 21.956L78.0088 49.4225L108.32 53.827Z" fill="#332532" />
<path d="M84.3703 40.6666L64.4532 0.310059L44.5361 40.6666L0 47.1381L32.2266 78.5512L24.6189 122.907L64.4532 101.965L104.287 122.907L96.6798 78.5512L128.906 47.1381L84.3703 40.6666ZM79.0591 47.9769L111.719 52.7226L88.086 75.7589L93.665 108.287L64.4532 92.9292L35.2414 108.287L40.8204 75.7589L17.1875 52.7226L49.8473 47.9769L64.4532 18.3821L79.0591 47.9769Z" fill="#332532" />
</svg>
