<svg viewBox="0 0 24 24" xmlns="http://www.w3.org/2000/svg">
<path d="m 5.5898438,1.25 c -0.946359,0 -1.8518559,0.4193372 -2.5976563,1.1503906 -0.5993337,0.5667969 -1.047378,1.2198434 -1.328125,1.9316406 -2.371e-4,5.928e-4 2.369e-4,0.00136 0,0.00195 C 1.3871881,5.0268643 1.25,5.7714839 1.25,6.5390625 c 0,1.1553846 0.2676436,2.3473235 0.7792969,3.5624995 v 0.002 c 0.5057567,1.190635 1.1940103,2.377143 2.0410156,3.554687 l 0.00195,0.002 0.00195,0.002 c 0.8530138,1.17161 1.807745,2.289685 2.8632812,3.355469 l 0.00195,0.002 0.00195,0.0039 c 1.0657842,1.055536 2.1865487,2.010667 3.3671878,2.873046 1.181082,0.859911 2.380341,1.549932 3.58789,2.064454 1.225978,0.522372 2.415088,0.789062 3.552735,0.789062 0.792191,0 1.5445,-0.149515 2.236328,-0.4375 h 0.002 c 0.717925,-0.294976 1.355709,-0.76027 1.908203,-1.369141 0.340769,-0.376021 0.603908,-0.782081 0.802735,-1.203125 0.215933,-0.457271 0.322265,-0.939045 0.322265,-1.410156 0,-0.387143 -0.08923,-0.744561 -0.214844,-1.058594 l -0.0039,-0.01172 -0.0059,-0.01172 c -0.167999,-0.381816 -0.454605,-0.706543 -0.802735,-0.949219 l -0.002,-0.002 -3.3125,-2.353516 -0.0078,-0.0039 c -0.279856,-0.190302 -0.553184,-0.34642 -0.837891,-0.462891 -0.295354,-0.120826 -0.597315,-0.1875 -0.892578,-0.1875 -0.383057,0 -0.758925,0.122918 -1.080078,0.314454 -0.317814,0.170139 -0.60284,0.397762 -0.880859,0.675781 l -0.6875,0.679687 c -0.01144,-0.0053 -0.02367,-0.0096 -0.03711,-0.01563 -0.266517,-0.141702 -0.660137,-0.411342 -1.15039,-0.826171 v 0.002 c -0.506404,-0.429965 -1.009742,-0.904574 -1.539063,-1.423829 l -0.0039,-0.0039 c -0.0021,-0.0021 -0.0038,-0.0038 -0.0059,-0.0059 -0.500375,-0.510514 -0.964732,-1.023835 -1.4023434,-1.529297 l -0.00586,-0.0078 C 9.4367471,10.661919 9.1562358,10.265136 9.0175781,10.013672 c -0.00416,-0.0098 -0.00809,-0.023005 -0.011719,-0.03125 l 0.6953125,-0.7226563 -0.011719,0.00977 C 9.962771,8.9962133 10.191941,8.7136674 10.365234,8.4101562 c 0.199335,-0.3309124 0.314454,-0.7075381 0.314454,-1.0898437 0,-0.3209184 -0.0799,-0.6208605 -0.201172,-0.9042969 C 10.36236,6.1346814 10.203042,5.856981 9.9980469,5.5722656 L 7.6835938,2.3085938 C 7.4265162,1.9392452 7.0806302,1.6703582 6.7167969,1.5019531 6.3598535,1.3320615 5.9743063,1.25 5.5898438,1.25 Z m 0,1.5 c 0.1728571,0 0.3453549,0.037802 0.4863281,0.1054688 l 0.00391,0.00391 0.00586,0.00195 c 0.1537023,0.07094 0.2651693,0.1573279 0.3671875,0.3046875 l 0.00195,0.00391 2.3242188,3.2753906 0.00195,0.00195 c 0.1526011,0.211946 0.2509239,0.3915814 0.3144531,0.546875 L 9.0976562,7 l 0.00391,0.00586 c 0.058305,0.1360458 0.078125,0.256032 0.078125,0.3144531 0,0.094167 -0.022362,0.1934054 -0.099609,0.3203125 l -0.00781,0.00977 -0.00586,0.00977 c -0.08594,0.1520485 -0.2343284,0.3456567 -0.4375,0.5488282 L 8.625,8.2148438 7.8691406,9 C 7.6305758,9.2385649 7.4902344,9.6134375 7.4902344,9.9296875 c 0,0.1424995 0.022034,0.2893085 0.052734,0.4121095 l 0.00977,0.04101 0.015625,0.04102 c 0.04443,0.118479 0.07403,0.184979 0.070312,0.173828 l 0.021484,0.0625 0.03125,0.05859 c 0.2221919,0.407352 0.5561354,0.863217 1.015625,1.40625 l 0.00391,0.002 0.00195,0.0039 c 0.4576799,0.528875 0.9489563,1.07151 1.4824214,1.615235 l 0.0039,0.0039 0.0059,0.0059 c 0.546856,0.53673 1.078643,1.038655 1.628906,1.50586 h 0.002 c 0.54731,0.463109 1.010378,0.792833 1.423828,1.011719 l 0.03516,0.01758 0.03711,0.01563 c 0.002,7.9e-4 0.06834,0.03208 0.16211,0.07227 l 0.01563,0.0078 0.01758,0.0059 c 0.182611,0.06848 0.366163,0.08789 0.511718,0.08789 0.346471,0 0.718912,-0.168131 0.941407,-0.390625 l 0.757812,-0.748047 0.002,-0.002 c 0.214645,-0.214645 0.405253,-0.356987 0.53711,-0.425782 l 0.02148,-0.0098 0.02148,-0.01367 c 0.135155,-0.08227 0.210313,-0.101563 0.320313,-0.101563 0.08474,0 0.181526,0.01505 0.326172,0.07422 0.155293,0.06353 0.340403,0.166709 0.560547,0.316407 l 3.302734,2.34375 0.0039,0.0039 c 0.164957,0.1142 0.232548,0.204321 0.283204,0.316406 0.06949,0.177573 0.103515,0.318891 0.103515,0.486328 0,0.248889 -0.05562,0.506802 -0.179687,0.769531 -0.141174,0.298956 -0.31741,0.571959 -0.556641,0.835938 -0.426491,0.470011 -0.868683,0.785129 -1.369141,0.990234 l -0.002,0.002 h -0.002 C 18.603636,21.139273 18.056362,21.25 17.449219,21.25 c -0.902353,0 -1.890821,-0.212295 -2.964844,-0.669922 -1.09245,-0.465479 -2.194051,-1.096395 -3.292969,-1.896484 C 10.072045,17.865973 9.0122627,16.961495 7.9980469,15.957031 6.9962543,14.945022 6.0942976,13.886996 5.2890625,12.78125 l -0.00195,-0.002 C 4.4954666,11.678415 3.8659597,10.587415 3.4121094,9.5195312 2.9637627,8.4547078 2.75,7.4636779 2.75,6.5390625 2.75,5.9472978 2.8539931,5.3952906 3.0566406,4.8886719 v -0.00195 l 0.00195,-0.00195 C 3.2570991,4.3802312 3.5685547,3.9173054 4.0253906,3.4863281 l 0.00586,-0.00586 0.00586,-0.00586 C 4.5699243,2.9501197 5.0593032,2.75 5.5898438,2.75 Z" />
  <path d="M14.25 5.5C14.25 5.08579 14.5858 4.75 15 4.75C16.1417 4.75 17.1765 5.46194 17.8791 6.21911C18.2734 6.64175 18.6064 7.11523 18.8445 7.57833C19.075 8.02657 19.25 8.53018 19.25 9C19.25 9.41421 18.9142 9.75 18.5 9.75C18.0858 9.75 17.75 9.41421 17.75 9C17.75 8.86982 17.69 8.61343 17.5105 8.26417C17.3387 7.93008 17.087 7.56889 16.7817 7.24174L16.7801 7.24004L16.7801 7.24003C16.2027 6.61753 15.5379 6.25 15 6.25C14.5858 6.25 14.25 5.91421 14.25 5.5Z" />
  <path d="M14.25 2C14.25 1.58579 14.5858 1.25 15 1.25C19.2842 1.25 22.75 4.71579 22.75 9C22.75 9.41421 22.4142 9.75 22 9.75C21.5858 9.75 21.25 9.41421 21.25 9C21.25 5.54421 18.4558 2.75 15 2.75C14.5858 2.75 14.25 2.41421 14.25 2Z" />
</svg>
