<svg viewBox="0 0 24 24" xmlns="http://www.w3.org/2000/svg">
<path d="m 19.6485,8.66556 v 4e-5 c 1.0571,4.6698 -1.8361,8.71 -4.568,11.3334 l -0.0014,0.0014 C 13.3606,21.659 10.6407,21.661 8.91015,19.9997 6.18804,17.3762 3.29432,13.3261 4.35138,8.65591 5.2446,4.73032 8.58646,2.74769 12.0032,2.75 c 3.4169,0.00231 6.7567,1.98971 7.6453,5.91556 z m 1.463,-0.33115 C 20.04,3.60029 15.9848,1.25269 12.0042,1.25 8.02358,1.24731 3.96557,3.58953 2.88864,8.32364 l -1.7e-4,7.7e-4 C 1.64576,13.8139 5.07175,18.3836 7.8695,21.08 l 9.5e-4,9e-4 c 2.30935,2.218 5.94865,2.2199 8.24995,-9e-4 2.8079,-2.6966 6.2338,-7.2561 4.9911,-12.74559 z" />
  <path d="M15.2803 8.46967C15.5732 8.76256 15.5732 9.23744 15.2803 9.53033L11.2803 13.5303C10.9874 13.8232 10.5126 13.8232 10.2197 13.5303L8.71967 12.0303C8.42678 11.7374 8.42678 11.2626 8.71967 10.9697C9.01256 10.6768 9.48744 10.6768 9.78033 10.9697L10.75 11.9393L14.2197 8.46967C14.5126 8.17678 14.9874 8.17678 15.2803 8.46967Z" />
</svg>
